<?xml version="1.0" encoding="UTF-8" standalone="no"?>
<!-- Created with Inkscape (http://www.inkscape.org/) -->

<svg
   xmlns:dc="http://purl.org/dc/elements/1.1/"
   xmlns:cc="http://creativecommons.org/ns#"
   xmlns:rdf="http://www.w3.org/1999/02/22-rdf-syntax-ns#"
   xmlns:svg="http://www.w3.org/2000/svg"
   xmlns="http://www.w3.org/2000/svg"
   xmlns:sodipodi="http://sodipodi.sourceforge.net/DTD/sodipodi-0.dtd"
   xmlns:inkscape="http://www.inkscape.org/namespaces/inkscape"
   width="500"
   height="500"
   id="svg2"
   version="1.1"
   inkscape:version="0.48.4 r9939"
   sodipodi:docname="objetos.svg"
   inkscape:export-filename="C:\Users\Pedro\Desktop\makemake\pedro\fragileRockBox.png"
   inkscape:export-xdpi="92.160004"
   inkscape:export-ydpi="92.160004">
  <defs
     id="defs4">
    <inkscape:perspective
       sodipodi:type="inkscape:persp3d"
       inkscape:vp_x="0 : 250 : 1"
       inkscape:vp_y="0 : 1000 : 0"
       inkscape:vp_z="500 : 250 : 1"
       inkscape:persp3d-origin="250 : 166.66667 : 1"
       id="perspective3898" />
  </defs>
  <sodipodi:namedview
     id="base"
     pagecolor="#ffffff"
     bordercolor="#666666"
     borderopacity="1.0"
     inkscape:pageopacity="0.0"
     inkscape:pageshadow="2"
     inkscape:zoom="0.25"
     inkscape:cx="443.54527"
     inkscape:cy="358.4949"
     inkscape:document-units="px"
     inkscape:current-layer="layer1"
     showgrid="false"
     inkscape:window-width="1920"
     inkscape:window-height="1028"
     inkscape:window-x="1358"
     inkscape:window-y="-8"
     inkscape:window-maximized="1"
     borderlayer="true" />
  <metadata
     id="metadata7">
    <rdf:RDF>
      <cc:Work
         rdf:about="">
        <dc:format>image/svg+xml</dc:format>
        <dc:type
           rdf:resource="http://purl.org/dc/dcmitype/StillImage" />
        <dc:title />
      </cc:Work>
    </rdf:RDF>
  </metadata>
  <g
     inkscape:label="Capa 1"
     inkscape:groupmode="layer"
     id="layer1"
     transform="translate(0,-552.36216)">
    <flowRoot
       xml:space="preserve"
       id="flowRoot3105"
       style="font-size:40px;font-style:normal;font-weight:normal;line-height:125%;letter-spacing:0px;word-spacing:0px;fill:#000000;fill-opacity:1;stroke:none;font-family:Sans"
       transform="translate(0,552.36218)"><flowRegion
         id="flowRegion3107"><rect
           id="rect3109"
           width="458.60925"
           height="282.84271"
           x="-911.15759"
           y="21.187696" /></flowRegion><flowPara
         id="flowPara3111" /></flowRoot>    <flowRoot
       xml:space="preserve"
       id="flowRoot3536"
       style="font-size:40px;font-style:normal;font-weight:normal;line-height:125%;letter-spacing:0px;word-spacing:0px;fill:#000000;fill-opacity:1;stroke:none;font-family:Sans"
       transform="translate(0,552.36218)"><flowRegion
         id="flowRegion3538"><rect
           id="rect3540"
           width="4050"
           height="72.85714"
           x="-4508.5713"
           y="-365.71429" /></flowRegion><flowPara
         id="flowPara3542" /></flowRoot>    <flowRoot
       xml:space="preserve"
       id="flowRoot3544"
       style="font-size:40px;font-style:normal;font-weight:normal;line-height:125%;letter-spacing:0px;word-spacing:0px;fill:#000000;fill-opacity:1;stroke:none;font-family:Sans"
       transform="translate(0,552.36218)"><flowRegion
         id="flowRegion3546"><rect
           id="rect3548"
           width="28.571428"
           height="1618.5714"
           x="-4402.8569"
           y="-2060" /></flowRegion><flowPara
         id="flowPara3550" /></flowRoot>    <path
       sodipodi:type="star"
       style="fill:#c8a937;fill-opacity:0.29166667;stroke:none"
       id="path4408"
       sodipodi:sides="3"
       sodipodi:cx="-765.625"
       sodipodi:cy="138.18896"
       sodipodi:r1="12.884705"
       sodipodi:r2="10.423945"
       sodipodi:arg1="-0.24497866"
       sodipodi:arg2="0.80221889"
       inkscape:flatsided="true"
       inkscape:rounded="0"
       inkscape:randomized="0"
       d="m -753.125,135.06397 -16.04367,15.51281 -5.41266,-21.65063 z"
       transform="translate(1616,284.1732)"
       inkscape:transform-center-x="-0.27522933"
       inkscape:transform-center-y="-0.96567811" />
    <g
       id="g4367"
       transform="translate(109.72583,-1002.8713)"
       inkscape:export-filename="C:\Users\jlmrdb\Desktop\transparent.png"
       inkscape:export-xdpi="737.28003"
       inkscape:export-ydpi="737.28003">
      <rect
         ry="5.6386409"
         rx="0.11215403"
         y="1570.2292"
         x="-700.13293"
         height="476.26581"
         width="476.26581"
         id="rect3048"
         style="fill:#1866c0;fill-opacity:0.2932692;stroke:#002bff;stroke-width:23.73417854;stroke-linecap:square;stroke-linejoin:miter;stroke-miterlimit:4;stroke-opacity:0.40865383;stroke-dasharray:23.73417743, 94.93670972;stroke-dashoffset:0" />
      <flowRoot
         transform="matrix(11.675451,0,0,11.675451,6968.0791,768.00321)"
         style="font-size:40px;font-style:normal;font-weight:normal;line-height:125%;letter-spacing:0px;word-spacing:0px;fill:#0000ff;fill-opacity:0.2692308;stroke:none;font-family:Sans"
         id="flowRoot3818"
         xml:space="preserve"><flowRegion
           id="flowRegion3820"><rect
             style="fill:#0000ff;fill-opacity:0.2692308"
             y="70"
             x="-642"
             height="628"
             width="420"
             id="rect3822" /></flowRegion><flowPara
           id="flowPara3824">!</flowPara></flowRoot>    </g>
    <rect
       style="fill:#ffccaa;fill-opacity:1;stroke:none"
       id="rect3826"
       width="500"
       height="500"
       x="0"
       y="552.36218"
       rx="0.11215403"
       ry="5.6386409" />
    <rect
       style="fill:#c8beb7;fill-opacity:1;stroke:#000000;stroke-width:1;stroke-opacity:1"
       id="rect4022"
       width="511.2529"
       height="509.93021"
       x="633.14856"
       y="533.51685"
       rx="0.11830594"
       ry="5.9479332"
       inkscape:export-filename="C:\Users\Pedro\Desktop\makemake\pedro\solidBox.png"
       inkscape:export-xdpi="89.989014"
       inkscape:export-ydpi="89.989014" />
    <rect
       style="fill:#000000;fill-opacity:0.43921569;stroke:none"
       id="rect4024-7-6-17-8-5-8"
       width="336.57407"
       height="76.768433"
       x="-266.98254"
       y="1002.9295"
       rx="0.082743235"
       ry="5.9602323"
       transform="matrix(0.57754389,-0.81635963,0.79592992,0.60538878,0,0)"
       inkscape:export-filename="C:\Users\Pedro\Desktop\makemake\pedro\solidBox.png"
       inkscape:export-xdpi="89.989014"
       inkscape:export-ydpi="89.989014" />
    <rect
       style="fill:#000000;fill-opacity:0.43921569;stroke:none"
       id="rect4024-7-6-17-4"
       width="195.90623"
       height="37.155804"
       x="789.45679"
       y="-954.10699"
       rx="0.082831256"
       ry="5.966835"
       transform="matrix(0,1,-1,0,0,0)"
       inkscape:export-filename="C:\Users\Pedro\Desktop\makemake\pedro\solidBox.png"
       inkscape:export-xdpi="89.989014"
       inkscape:export-ydpi="89.989014" />
    <rect
       style="fill:none;stroke:#494949;stroke-width:27.89901733;stroke-miterlimit:4;stroke-opacity:0.44711537;stroke-dasharray:none"
       id="rect4130"
       width="391.72299"
       height="378.47119"
       x="694.44733"
       y="604.61865"
       rx="0.079370543"
       ry="5.5320392"
       inkscape:export-filename="C:\Users\Pedro\Desktop\makemake\pedro\solidBox.png"
       inkscape:export-xdpi="89.989014"
       inkscape:export-ydpi="89.989014" />
    <rect
       style="fill:#000000;fill-opacity:0.4375;stroke:none"
       id="rect4024-7-6-17-4-5"
       width="63.324371"
       height="232.31351"
       x="726.22546"
       y="-1122.1766"
       rx="0.082831256"
       ry="5.966835"
       transform="matrix(0,1,-1,0,0,0)"
       inkscape:export-filename="C:\Users\Pedro\Desktop\makemake\pedro\solidBox.png"
       inkscape:export-xdpi="89.989014"
       inkscape:export-ydpi="89.989014" />
    <rect
       style="fill:#6c5d53;fill-opacity:1;stroke:#3d3d3d;stroke-width:14.79979515;stroke-miterlimit:4;stroke-opacity:1;stroke-dasharray:none"
       id="rect4024"
       width="496.12003"
       height="64.455383"
       x="640.71503"
       y="542.86658"
       rx="0.082831256"
       ry="5.966835"
       inkscape:export-filename="C:\Users\Pedro\Desktop\makemake\pedro\solidBox.png"
       inkscape:export-xdpi="89.989014"
       inkscape:export-ydpi="89.989014" />
    <rect
       style="fill:#6c5d53;fill-opacity:1;stroke:#3d3d3d;stroke-width:14.79979515;stroke-miterlimit:4;stroke-opacity:1;stroke-dasharray:none"
       id="rect4024-7"
       width="496.12003"
       height="64.455383"
       x="640.71503"
       y="973.24762"
       rx="0.082831256"
       ry="5.966835"
       inkscape:export-filename="C:\Users\Pedro\Desktop\makemake\pedro\solidBox.png"
       inkscape:export-xdpi="89.989014"
       inkscape:export-ydpi="89.989014" />
    <rect
       style="fill:#6c5d53;fill-opacity:1;stroke:#3d3d3d;stroke-width:14.79979515;stroke-miterlimit:4;stroke-opacity:1;stroke-dasharray:none"
       id="rect4024-7-6"
       width="494.83646"
       height="64.622574"
       x="542.86658"
       y="-705.33759"
       rx="0.082831256"
       ry="5.9668355"
       transform="matrix(0,1,-1,0,0,0)"
       inkscape:export-filename="C:\Users\Pedro\Desktop\makemake\pedro\solidBox.png"
       inkscape:export-xdpi="89.989014"
       inkscape:export-ydpi="89.989014" />
    <rect
       style="fill:#6c5d53;fill-opacity:1;stroke:#3d3d3d;stroke-width:14.79979515;stroke-miterlimit:4;stroke-opacity:1;stroke-dasharray:none"
       id="rect4024-7-6-1"
       width="494.83646"
       height="64.622574"
       x="542.86658"
       y="-1136.835"
       rx="0.082831256"
       ry="5.9668355"
       transform="matrix(0,1,-1,0,0,0)"
       inkscape:export-filename="C:\Users\Pedro\Desktop\makemake\pedro\solidBox.png"
       inkscape:export-xdpi="89.989014"
       inkscape:export-ydpi="89.989014" />
    <path
       sodipodi:type="arc"
       style="fill:#000000;fill-opacity:0.46634617;stroke:none"
       id="path4186-4"
       sodipodi:cx="-137"
       sodipodi:cy="21.999996"
       sodipodi:rx="12"
       sodipodi:ry="12"
       d="m -125,21.999996 a 12,12 0 1 1 -24,0 12,12 0 1 1 24,0 z"
       transform="matrix(1.363341,0,0,1.3598139,857.75901,555.37694)"
       inkscape:export-filename="C:\Users\Pedro\Desktop\makemake\pedro\solidBox.png"
       inkscape:export-xdpi="89.989014"
       inkscape:export-ydpi="89.989014" />
    <path
       sodipodi:type="arc"
       style="fill:#a2a2a2;fill-opacity:1;stroke:#3d3d3d;stroke-width:9.79257107;stroke-linecap:square;stroke-linejoin:miter;stroke-miterlimit:4;stroke-opacity:1;stroke-dasharray:none;stroke-dashoffset:0"
       id="path4186"
       sodipodi:cx="-137"
       sodipodi:cy="21.999996"
       sodipodi:rx="12"
       sodipodi:ry="12"
       d="m -125,21.999996 a 12,12 0 1 1 -24,0 12,12 0 1 1 24,0 z"
       transform="matrix(1.0225058,0,0,1.0198604,812.08709,555.71689)"
       inkscape:export-filename="C:\Users\Pedro\Desktop\makemake\pedro\solidBox.png"
       inkscape:export-xdpi="89.989014"
       inkscape:export-ydpi="89.989014" />
    <path
       sodipodi:type="arc"
       style="fill:#000000;fill-opacity:0.46634617;stroke:none"
       id="path4186-4-2"
       sodipodi:cx="-137"
       sodipodi:cy="21.999996"
       sodipodi:rx="12"
       sodipodi:ry="12"
       d="m -125,21.999996 a 12,12 0 1 1 -24,0 12,12 0 1 1 24,0 z"
       transform="matrix(1.363341,0,0,1.3598139,862.87154,978.61902)"
       inkscape:export-filename="C:\Users\Pedro\Desktop\makemake\pedro\solidBox.png"
       inkscape:export-xdpi="89.989014"
       inkscape:export-ydpi="89.989014" />
    <path
       sodipodi:type="arc"
       style="fill:#a2a2a2;fill-opacity:1;stroke:#3d3d3d;stroke-width:9.79257107;stroke-linecap:square;stroke-linejoin:miter;stroke-miterlimit:4;stroke-opacity:1;stroke-dasharray:none;stroke-dashoffset:0"
       id="path4186-3"
       sodipodi:cx="-137"
       sodipodi:cy="21.999996"
       sodipodi:rx="12"
       sodipodi:ry="12"
       d="m -125,21.999996 a 12,12 0 1 1 -24,0 12,12 0 1 1 24,0 z"
       transform="matrix(1.0225058,0,0,1.0198604,817.19962,978.95897)"
       inkscape:export-filename="C:\Users\Pedro\Desktop\makemake\pedro\solidBox.png"
       inkscape:export-xdpi="89.989014"
       inkscape:export-ydpi="89.989014" />
    <path
       sodipodi:type="arc"
       style="fill:#000000;fill-opacity:0.46634617;stroke:none"
       id="path4186-4-22"
       sodipodi:cx="-137"
       sodipodi:cy="21.999996"
       sodipodi:rx="12"
       sodipodi:ry="12"
       d="m -125,21.999996 a 12,12 0 1 1 -24,0 12,12 0 1 1 24,0 z"
       transform="matrix(1.363341,0,0,1.3598139,1291.3015,555.37694)"
       inkscape:export-filename="C:\Users\Pedro\Desktop\makemake\pedro\solidBox.png"
       inkscape:export-xdpi="89.989014"
       inkscape:export-ydpi="89.989014" />
    <path
       sodipodi:type="arc"
       style="fill:#a2a2a2;fill-opacity:1;stroke:#3d3d3d;stroke-width:9.79257107;stroke-linecap:square;stroke-linejoin:miter;stroke-miterlimit:4;stroke-opacity:1;stroke-dasharray:none;stroke-dashoffset:0"
       id="path4186-1"
       sodipodi:cx="-137"
       sodipodi:cy="21.999996"
       sodipodi:rx="12"
       sodipodi:ry="12"
       d="m -125,21.999996 a 12,12 0 1 1 -24,0 12,12 0 1 1 24,0 z"
       transform="matrix(1.0225058,0,0,1.0198604,1245.6295,555.71689)"
       inkscape:export-filename="C:\Users\Pedro\Desktop\makemake\pedro\solidBox.png"
       inkscape:export-xdpi="89.989014"
       inkscape:export-ydpi="89.989014" />
    <path
       sodipodi:type="arc"
       style="fill:#000000;fill-opacity:0.46634617;stroke:none"
       id="path4186-4-6"
       sodipodi:cx="-137"
       sodipodi:cy="21.999996"
       sodipodi:rx="12"
       sodipodi:ry="12"
       d="m -125,21.999996 a 12,12 0 1 1 -24,0 12,12 0 1 1 24,0 z"
       transform="matrix(1.363341,0,0,1.3598139,1288.2339,972.49986)"
       inkscape:export-filename="C:\Users\Pedro\Desktop\makemake\pedro\solidBox.png"
       inkscape:export-xdpi="89.989014"
       inkscape:export-ydpi="89.989014" />
    <path
       sodipodi:type="arc"
       style="fill:#a2a2a2;fill-opacity:1;stroke:#3d3d3d;stroke-width:9.79257107;stroke-linecap:square;stroke-linejoin:miter;stroke-miterlimit:4;stroke-opacity:1;stroke-dasharray:none;stroke-dashoffset:0"
       id="path4186-8"
       sodipodi:cx="-137"
       sodipodi:cy="21.999996"
       sodipodi:rx="12"
       sodipodi:ry="12"
       d="m -125,21.999996 a 12,12 0 1 1 -24,0 12,12 0 1 1 24,0 z"
       transform="matrix(1.0225058,0,0,1.0198604,1242.562,972.83981)"
       inkscape:export-filename="C:\Users\Pedro\Desktop\makemake\pedro\solidBox.png"
       inkscape:export-xdpi="89.989014"
       inkscape:export-ydpi="89.989014" />
    <g
       id="g4374"
       inkscape:export-filename="C:\Users\jlmrdb\Desktop\meta.png"
       inkscape:export-xdpi="737.28003"
       inkscape:export-ydpi="737.28003"
       transform="translate(1228.6863,-24.390201)">
      <rect
         ry="5.9598527"
         rx="0.085528873"
         y="552.36218"
         x="0"
         height="500"
         width="500"
         id="rect4261"
         style="fill:#a2a2a2;fill-opacity:1;stroke:none" />
      <path
         inkscape:transform-center-x="4.5911354e-005"
         inkscape:transform-center-y="-19.07409"
         transform="matrix(3.1669892,0,0,3.1669892,1130.423,772.55796)"
         d="m -278,-47.071392 59.98446,43.581259 -22.91203,70.515955 -74.14486,-2e-6 -22.91202,-70.5159562 z"
         inkscape:randomized="0"
         inkscape:rounded="0"
         inkscape:flatsided="true"
         sodipodi:arg2="-0.9424778"
         sodipodi:arg1="-1.5707963"
         sodipodi:r2="51.025826"
         sodipodi:r1="63.071388"
         sodipodi:cy="15.999996"
         sodipodi:cx="-278"
         sodipodi:sides="5"
         id="path4267"
         style="fill:#d5d255;fill-opacity:1;stroke:#d80dbf;stroke-width:8.65855503;stroke-miterlimit:4;stroke-opacity:0.125;stroke-dasharray:none"
         sodipodi:type="star" />
      <path
         inkscape:transform-center-x="4.7650065e-005"
         inkscape:transform-center-y="-21.245318"
         transform="matrix(3.6241336,0,0,3.5274918,1258.4232,767.59007)"
         d="m -278,-47.071392 59.98446,43.581259 -22.91203,70.515955 -74.14486,-2e-6 -22.91202,-70.5159562 z"
         inkscape:randomized="0"
         inkscape:rounded="0"
         inkscape:flatsided="true"
         sodipodi:arg2="-0.9424778"
         sodipodi:arg1="-1.5707963"
         sodipodi:r2="51.025826"
         sodipodi:r1="63.071388"
         sodipodi:cy="15.999996"
         sodipodi:cx="-278"
         sodipodi:sides="5"
         id="path4267-5"
         style="fill:#000000;fill-opacity:0.15865383;stroke:none"
         sodipodi:type="star" />
      <flowRoot
         transform="matrix(5.0907524,0,0,5.0907524,-519.36295,-285.53088)"
         style="font-size:40px;font-style:normal;font-variant:normal;font-weight:normal;font-stretch:normal;line-height:125%;letter-spacing:0px;word-spacing:0px;fill:#000000;fill-opacity:1;stroke:none;font-family:Arcade Interlaced;-inkscape-font-specification:Arcade Interlaced"
         id="flowRoot4287"
         xml:space="preserve"><flowRegion
           id="flowRegion4289"><rect
             style="font-style:normal;font-variant:normal;font-weight:normal;font-stretch:normal;font-family:Arcade Interlaced;-inkscape-font-specification:Arcade Interlaced"
             y="200"
             x="134"
             height="201"
             width="242"
             id="rect4291" /></flowRegion><flowPara
           id="flowPara4293">N</flowPara></flowRoot>      <flowRoot
         transform="matrix(5.0907524,0,0,5.0907524,-526.67537,-289.18709)"
         style="font-size:40px;font-style:normal;font-variant:normal;font-weight:normal;font-stretch:normal;line-height:125%;letter-spacing:0px;word-spacing:0px;fill:#c93636;fill-opacity:1;stroke:none;font-family:Arcade Interlaced;-inkscape-font-specification:Arcade Interlaced"
         id="flowRoot4287-7"
         xml:space="preserve"><flowRegion
           id="flowRegion4289-6"><rect
             style="font-style:normal;font-variant:normal;font-weight:normal;font-stretch:normal;fill:#c93636;fill-opacity:1;font-family:Arcade Interlaced;-inkscape-font-specification:Arcade Interlaced"
             y="200"
             x="134"
             height="201"
             width="242"
             id="rect4291-1" /></flowRegion><flowPara
           id="flowPara4293-8">N</flowPara></flowRoot>      <rect
         ry="4.9985862"
         rx="0.17243725"
         y="552.36218"
         x="0"
         height="26"
         width="500"
         id="rect4322"
         style="fill:#c93636;fill-opacity:0.17307691;stroke:none" />
      <rect
         ry="4.9985862"
         rx="0.17243725"
         y="1026.3622"
         x="0"
         height="26"
         width="500"
         id="rect4322-9"
         style="fill:#c93636;fill-opacity:0.17254902;stroke:none" />
      <rect
         transform="matrix(0,1,-1,0,0,0)"
         ry="4.9985862"
         rx="0.17243725"
         y="-26"
         x="552.36218"
         height="26"
         width="500"
         id="rect4322-2"
         style="fill:#c93636;fill-opacity:0.17254902;stroke:none" />
      <rect
         transform="matrix(0,1,-1,0,0,0)"
         ry="4.9985862"
         rx="0.17243725"
         y="-500"
         x="552.36218"
         height="26"
         width="500"
         id="rect4322-2-7"
         style="fill:#c93636;fill-opacity:0.17254902;stroke:none" />
    </g>
    <rect
       style="fill:#f5ece6;fill-opacity:1;stroke:none"
       id="rect4022-5"
       width="500"
       height="500"
       x="-1192.0513"
       y="565.74902"
       rx="0.11486014"
       ry="5.7746921"
       inkscape:export-filename="C:\Users\jlmrdb\Desktop\piedra.png"
       inkscape:export-xdpi="732.41998"
       inkscape:export-ydpi="732.41998" />
    <path
       style="fill:#ffffff;fill-opacity:0.47115383;fill-rule:nonzero;stroke:none"
       d="m -1024.1977,734.89548 c 15.9582,64.80642 -23.4629,53.09292 -34.3535,52.85352 7.9654,8.4059 59.7952,14.8078 34.3535,-52.85352 z"
       id="path3981"
       inkscape:connector-curvature="0"
       sodipodi:nodetypes="ccc" />
    <path
       style="fill:#ffffff;fill-opacity:0.25;fill-rule:nonzero;stroke:none"
       d="m -1179.3233,843.7175 c 18.3848,0 79.196,-4.2426 97.5807,-12.7279 18.3848,-8.4853 39.598,-18.3848 45.2549,-18.3848 5.6568,0 38.1837,5.6569 50.9117,2.8284 12.7279,-2.8284 33.9411,-11.3137 35.3553,-18.3848 1.4142,-7.071 5.6568,-43.84057 7.0711,-49.49742 1.4142,-5.65686 3.0984,12.19802 2.5984,14.19802 -0.5,2 -6,37.5 -7.5,40 -1.5,2.5 -8,12 -27.5,17 -19.5,5 -72.5,2 -78,4.5 -5.5,2.5 -14.5,11.5 -13.5,13.5 1,2 16,13.5 20,18.5 4,5 4.5,31 1,34 -3.5,3 -13.5,6 -13.5,4 0,-2 9,-9 9,-9 0,0 5.5,-17 3,-24 -2.5,-7 -11,-14 -17.5,-13 -6.5,1 -16.5,-3.5 -15,-7 1.5,-3.5 1,-12.5 -4,-8 -5,4.5 -7.5,12.5 -17.5,18 -10,5.5 -28,4.5 -35,0 -7,-4.5 -27.5,-7.5 -30.5,-6.5 -3,1 -12.2721,-0.032 -12.2721,-0.032 z"
       id="path3983"
       inkscape:connector-curvature="0" />
    <path
       style="fill:#000000;fill-opacity:0.10576926;fill-rule:nonzero;stroke:none"
       d="m -966.5512,582.74903 c 0,0 46.5,47 53.5,54.5 7,7.5 13,42.5 7.5,47.5 -5.5,5 -13.5,16 -13.5,21 0,5 3,18.5 6.5,22 3.5,3.5 11.5,19.5 11.5,25 0,5.49997 -3.5,10.99997 -5.5,11.99997 -2,1 -20,20.5 -21,23 -1,2.5 5,7 8.5,4.5 3.5,-2.5 20.5,-27 20.5,-27 0,0 6.5,-9 10,-9 3.5,0 14.5,8 14.5,8 l -1.5,12.5 c 0,0 3.5,17 4.5,12.5 1,-4.5 6.5,-23.5 5,-32 -1.5,-8.49997 -19.5,-6.99997 -24,-7.99997 -4.5,-1 -11,-17 -15,-24.5 -4,-7.5 -12,-18.5 -3.5,-28.5 8.5,-10 13,-12 14.5,-22 1.5,-10 4,-22 0.5,-30 -3.5,-8 -22,-28 -35.5,-39.5 -13.5,-11.5 -37.5,-22 -37.5,-22 z"
       id="path3985"
       inkscape:connector-curvature="0" />
    <path
       style="fill:#ffffff;fill-opacity:0.375;fill-rule:nonzero;stroke:none"
       d="m -827.0512,959.749 c 21,4 36,6 48,3 12,-3 21,-10 30,-3 9,7 22,13 7,14 -15,1 -23,-10 -36,-7 -13,3 -16,6 -25,8 -9,2 -25,1 -34,5 -9,4 -25,-2 -25,-2 0,0 3,-8 15,-8 12,0 20,-10 20,-10 z"
       id="path3989"
       inkscape:connector-curvature="0" />
    <rect
       style="fill:#6c5d53;fill-opacity:1;stroke:#3d3d3d;stroke-width:14.79979515;stroke-miterlimit:4;stroke-opacity:1;stroke-dasharray:none"
       id="rect4024-7-6-17"
       width="357.04416"
       height="64.622574"
       x="676.25232"
       y="-913.64752"
       rx="0.082831256"
       ry="5.9668355"
       transform="matrix(0,1,-1,0,0,0)"
       inkscape:export-filename="C:\Users\Pedro\Desktop\makemake\pedro\solidBox.png"
       inkscape:export-xdpi="89.989014"
       inkscape:export-ydpi="89.989014" />
    <path
       sodipodi:type="arc"
       style="fill:#000000;fill-opacity:0.46634617;stroke:none"
       id="path4186-4-4"
       sodipodi:cx="-137"
       sodipodi:cy="21.999996"
       sodipodi:rx="12"
       sodipodi:ry="12"
       d="m -125,21.999996 a 12,12 0 1 1 -24,0 12,12 0 1 1 24,0 z"
       transform="matrix(1.363341,0,0,0.98115978,1066.069,691.39817)"
       inkscape:export-filename="C:\Users\Pedro\Desktop\makemake\pedro\solidBox.png"
       inkscape:export-xdpi="89.989014"
       inkscape:export-ydpi="89.989014" />
    <path
       sodipodi:type="arc"
       style="fill:#a2a2a2;fill-opacity:1;stroke:#3d3d3d;stroke-width:11.52833462;stroke-linecap:square;stroke-linejoin:miter;stroke-miterlimit:4;stroke-opacity:1;stroke-dasharray:none;stroke-dashoffset:0"
       id="path4186-0"
       sodipodi:cx="-137"
       sodipodi:cy="21.999996"
       sodipodi:rx="12"
       sodipodi:ry="12"
       d="m -125,21.999996 a 12,12 0 1 1 -24,0 12,12 0 1 1 24,0 z"
       transform="matrix(1.0225058,0,0,0.73586985,1020.3971,691.64346)"
       inkscape:export-filename="C:\Users\Pedro\Desktop\makemake\pedro\solidBox.png"
       inkscape:export-xdpi="89.989014"
       inkscape:export-ydpi="89.989014" />
    <path
       sodipodi:type="arc"
       style="fill:#000000;fill-opacity:0.46634617;stroke:none"
       id="path4186-4-2-9"
       sodipodi:cx="-137"
       sodipodi:cy="21.999996"
       sodipodi:rx="12"
       sodipodi:ry="12"
       d="m -125,21.999996 a 12,12 0 1 1 -24,0 12,12 0 1 1 24,0 z"
       transform="matrix(1.363341,0,0,0.98115978,1071.1815,996.78417)"
       inkscape:export-filename="C:\Users\Pedro\Desktop\makemake\pedro\solidBox.png"
       inkscape:export-xdpi="89.989014"
       inkscape:export-ydpi="89.989014" />
    <path
       sodipodi:type="arc"
       style="fill:#a2a2a2;fill-opacity:1;stroke:#3d3d3d;stroke-width:11.52833462;stroke-linecap:square;stroke-linejoin:miter;stroke-miterlimit:4;stroke-opacity:1;stroke-dasharray:none;stroke-dashoffset:0"
       id="path4186-3-4"
       sodipodi:cx="-137"
       sodipodi:cy="21.999996"
       sodipodi:rx="12"
       sodipodi:ry="12"
       d="m -125,21.999996 a 12,12 0 1 1 -24,0 12,12 0 1 1 24,0 z"
       transform="matrix(1.0225058,0,0,0.73586985,1025.5096,997.02945)"
       inkscape:export-filename="C:\Users\Pedro\Desktop\makemake\pedro\solidBox.png"
       inkscape:export-xdpi="89.989014"
       inkscape:export-ydpi="89.989014" />
    <rect
       style="fill:#6c5d53;fill-opacity:1;stroke:#3d3d3d;stroke-width:14.7997961;stroke-miterlimit:4;stroke-opacity:1;stroke-dasharray:none"
       id="rect4024-7-6-17-8"
       width="280.25986"
       height="64.455383"
       x="849.59192"
       y="685.88538"
       rx="0.082831256"
       ry="5.966835"
       inkscape:export-filename="C:\Users\Pedro\Desktop\makemake\pedro\solidBox.png"
       inkscape:export-xdpi="89.989014"
       inkscape:export-ydpi="89.989014" />
    <path
       sodipodi:type="arc"
       style="fill:#000000;fill-opacity:0.46634617;stroke:none"
       id="path4186-4-2-9-8"
       sodipodi:cx="-137"
       sodipodi:cy="21.999996"
       sodipodi:rx="12"
       sodipodi:ry="12"
       d="m -125,21.999996 a 12,12 0 1 1 -24,0 12,12 0 1 1 24,0 z"
       transform="matrix(1.363341,0,0,0.98115978,1071.1815,704.26049)"
       inkscape:export-filename="C:\Users\Pedro\Desktop\makemake\pedro\solidBox.png"
       inkscape:export-xdpi="89.989014"
       inkscape:export-ydpi="89.989014" />
    <path
       sodipodi:type="arc"
       style="fill:#a2a2a2;fill-opacity:1;stroke:#3d3d3d;stroke-width:11.52833462;stroke-linecap:square;stroke-linejoin:miter;stroke-miterlimit:4;stroke-opacity:1;stroke-dasharray:none;stroke-dashoffset:0"
       id="path4186-3-4-2"
       sodipodi:cx="-137"
       sodipodi:cy="21.999996"
       sodipodi:rx="12"
       sodipodi:ry="12"
       d="m -125,21.999996 a 12,12 0 1 1 -24,0 12,12 0 1 1 24,0 z"
       transform="matrix(1.0225058,0,0,0.73586985,1025.5096,704.50577)"
       inkscape:export-filename="C:\Users\Pedro\Desktop\makemake\pedro\solidBox.png"
       inkscape:export-xdpi="89.989014"
       inkscape:export-ydpi="89.989014" />
    <rect
       style="fill:#6c5d53;fill-opacity:1;stroke:#3d3d3d;stroke-width:14.79981804;stroke-miterlimit:4;stroke-opacity:1;stroke-dasharray:none"
       id="rect4024-7-6-17-8-5"
       width="279.78867"
       height="64.564133"
       x="-242.96729"
       y="987.18042"
       rx="0.082797766"
       ry="5.9644613"
       transform="matrix(0.59247494,-0.80558888,0.80705036,0.59048261,0,0)"
       inkscape:export-filename="C:\Users\Pedro\Desktop\makemake\pedro\solidBox.png"
       inkscape:export-xdpi="89.989014"
       inkscape:export-ydpi="89.989014" />
    <path
       sodipodi:type="arc"
       style="fill:#000000;fill-opacity:0.46634617;stroke:none"
       id="path4186-4-2-9-1"
       sodipodi:cx="-137"
       sodipodi:cy="21.999996"
       sodipodi:rx="12"
       sodipodi:ry="12"
       d="m -125,21.999996 a 12,12 0 1 1 -24,0 12,12 0 1 1 24,0 z"
       transform="matrix(1.363341,0,0,0.98115978,883.81876,753.61526)"
       inkscape:export-filename="C:\Users\Pedro\Desktop\makemake\pedro\solidBox.png"
       inkscape:export-xdpi="89.989014"
       inkscape:export-ydpi="89.989014" />
    <path
       sodipodi:type="arc"
       style="fill:#a2a2a2;fill-opacity:1;stroke:#3d3d3d;stroke-width:11.52833462;stroke-linecap:square;stroke-linejoin:miter;stroke-miterlimit:4;stroke-opacity:1;stroke-dasharray:none;stroke-dashoffset:0"
       id="path4186-3-4-6"
       sodipodi:cx="-137"
       sodipodi:cy="21.999996"
       sodipodi:rx="12"
       sodipodi:ry="12"
       d="m -125,21.999996 a 12,12 0 1 1 -24,0 12,12 0 1 1 24,0 z"
       transform="matrix(1.0225058,0,0,0.73586985,838.14683,753.86054)"
       inkscape:export-filename="C:\Users\Pedro\Desktop\makemake\pedro\solidBox.png"
       inkscape:export-xdpi="89.989014"
       inkscape:export-ydpi="89.989014" />
    <path
       sodipodi:type="arc"
       style="fill:#000000;fill-opacity:0.46634617;stroke:none"
       id="path4186-4-2-9-85"
       sodipodi:cx="-137"
       sodipodi:cy="21.999996"
       sodipodi:rx="12"
       sodipodi:ry="12"
       d="m -125,21.999996 a 12,12 0 1 1 -24,0 12,12 0 1 1 24,0 z"
       transform="matrix(1.363341,0,0,0.98115978,1008.1783,586.30841)"
       inkscape:export-filename="C:\Users\Pedro\Desktop\makemake\pedro\solidBox.png"
       inkscape:export-xdpi="89.989014"
       inkscape:export-ydpi="89.989014" />
    <path
       sodipodi:type="arc"
       style="fill:#a2a2a2;fill-opacity:1;stroke:#3d3d3d;stroke-width:11.52833462;stroke-linecap:square;stroke-linejoin:miter;stroke-miterlimit:4;stroke-opacity:1;stroke-dasharray:none;stroke-dashoffset:0"
       id="path4186-3-4-7"
       sodipodi:cx="-137"
       sodipodi:cy="21.999996"
       sodipodi:rx="12"
       sodipodi:ry="12"
       d="m -125,21.999996 a 12,12 0 1 1 -24,0 12,12 0 1 1 24,0 z"
       transform="matrix(1.0225058,0,0,0.73586985,962.50641,586.55369)"
       inkscape:export-filename="C:\Users\Pedro\Desktop\makemake\pedro\solidBox.png"
       inkscape:export-xdpi="89.989014"
       inkscape:export-ydpi="89.989014" />
    <path
       sodipodi:type="arc"
       style="fill:#000000;fill-opacity:0.46634617;stroke:none"
       id="path4186-4-2-9-6"
       sodipodi:cx="-137"
       sodipodi:cy="21.999996"
       sodipodi:rx="12"
       sodipodi:ry="12"
       d="m -125,21.999996 a 12,12 0 1 1 -24,0 12,12 0 1 1 24,0 z"
       transform="matrix(1.363341,0,0,0.98115978,1280.0341,698.80784)"
       inkscape:export-filename="C:\Users\Pedro\Desktop\makemake\pedro\solidBox.png"
       inkscape:export-xdpi="89.989014"
       inkscape:export-ydpi="89.989014" />
    <path
       sodipodi:type="arc"
       style="fill:#a2a2a2;fill-opacity:1;stroke:#3d3d3d;stroke-width:11.52833462;stroke-linecap:square;stroke-linejoin:miter;stroke-miterlimit:4;stroke-opacity:1;stroke-dasharray:none;stroke-dashoffset:0"
       id="path4186-3-4-1"
       sodipodi:cx="-137"
       sodipodi:cy="21.999996"
       sodipodi:rx="12"
       sodipodi:ry="12"
       d="m -125,21.999996 a 12,12 0 1 1 -24,0 12,12 0 1 1 24,0 z"
       transform="matrix(1.0225058,0,0,0.73586985,1234.3622,699.05313)"
       inkscape:export-filename="C:\Users\Pedro\Desktop\makemake\pedro\solidBox.png"
       inkscape:export-xdpi="89.989014"
       inkscape:export-ydpi="89.989014" />
    <path
       style="fill:#000000;fill-opacity:0.10576926;fill-rule:nonzero;stroke:none"
       d="m -1196.69,589.60185 c 10.9175,3.28409 29.4773,12.0417 53.4959,7.6629 24.0185,-4.37881 -20.7433,-6.56819 41.4866,-6.56819 62.23,0 54.5877,-17.51521 111.3589,14.23108 56.7711,31.7463 81.8815,19.7046 110.267,13.13639 28.3856,-6.56819 90.6156,-32.84098 101.5331,-33.93568 10.9175,-1.0947 12.0093,-3.2841 36.0279,3.2841 24.0186,6.5682 30.5691,20.79929 22.9268,33.93569 -7.6423,13.13639 -22.9268,22.98869 -13.101,33.93569 9.8257,10.947 16.3763,-6.56819 13.101,25.17809 -3.2753,31.74629 3.2753,111.65938 4.367,126.98518 1.0918,15.3258 13.1011,79.9131 8.734,100.7123 -4.367,20.7993 -5.4587,30.6516 -9.8257,55.8297 -4.3671,25.1781 4.367,30.6516 0,50.3563 -4.3671,19.7046 -12.0093,40.5038 -25.1104,37.2198 -13.101,-3.2841 -14.1928,-6.5683 -45.8536,-5.4735 -31.6609,1.0947 -77.5145,9.8523 -101.5331,2.1894 -24.0186,-7.663 -36.0278,-13.1364 -74.2392,-13.1364 -38.2114,0 -54.5877,15.3257 -79.698,17.5152 -25.1103,2.1893 -56.7712,15.3257 -79.698,-1.0947 -22.9268,-16.4205 -9.8258,-14.2311 -34.9361,-21.894 -25.1103,-7.6629 -39.3031,-2.1895 -41.4866,-24.0835 -2.1836,-21.894 17.468,-44.8827 18.5598,-59.1138 1.0917,-14.2311 3.2752,-16.4205 -2.1835,-37.2198 -5.4588,-20.7992 -4.3671,-42.6932 0,-62.3978 4.367,-19.7046 16.3763,-26.2728 6.5505,-53.6403 -9.8258,-27.3675 -20.7433,-50.35621 -15.2846,-65.68199 5.4588,-15.3258 9.8258,-42.69329 13.1011,-55.82968 3.2752,-13.1364 8.734,-28.46219 6.5505,-40.5039 -2.1835,-12.04169 -6.5505,-51.45087 -6.5505,-51.45087 l -24.0186,-6.56821 -5.4588,502.46725 518.5829,-5.4735 5.4588,-519.98244 -518.5829,2.1894 z"
       id="path3876"
       inkscape:connector-curvature="0" />
    <path
       style="fill:#000000;fill-opacity:0.25961537;fill-rule:nonzero;stroke:none"
       d="m -1076.0857,676.8403 c -24.0416,14.14214 -63.8084,27.664 -46.6691,63.63961 20.0863,42.16139 89.121,62.32729 101.8234,41.01219 12.6644,-21.2512 -24.0416,-113.13708 -39.598,-110.30865"
       id="path3880"
       inkscape:connector-curvature="0"
       sodipodi:nodetypes="cssc" />
    <path
       style="fill:#000000;fill-opacity:0.47115383;fill-rule:nonzero;stroke:none"
       d="m -1061.4101,671.44631 c -22.7047,8.26747 -82.4416,33.44365 -61.6862,68.05846 20.0041,33.36183 -5.3259,0.70062 6.4497,-26.31628 10.0552,-23.06977 57.763,-41.27579 71.5428,-27.39174 -9.6711,-14.25682 -11.5929,-14.58756 -16.3063,-14.35044 z"
       id="path3880-7"
       inkscape:connector-curvature="0"
       sodipodi:nodetypes="csscc" />
    <path
       style="fill:#000000;fill-opacity:0.12980772;fill-rule:nonzero;stroke:none"
       d="m -955.8776,874.1231 c 0,0 -87.0643,3.4579 -31.1127,48.0833 28.1968,22.4889 63.6397,-5.6569 63.6397,-5.6569 0,0 35.3553,-24.0416 45.2548,-19.799 9.8995,4.2426 53.7401,11.3137 77.7817,11.3137 24.0417,0 70.7107,-41.0122 33.9412,-67.8822 -36.7696,-26.8701 -67.8823,8.4852 -74.9534,16.9705 -16.2964,19.5558 -39.5979,33.9412 -55.1543,31.1127 -15.5563,-2.8284 -59.397,-14.1421 -59.397,-14.1421 z"
       id="path3917"
       inkscape:connector-curvature="0"
       sodipodi:nodetypes="cscsssssc" />
    <path
       style="fill:#000000;fill-opacity:0.25;fill-rule:nonzero;stroke:none"
       d="m -808.7993,855.7383 c -4.8848,2.2279 -41.0122,15.5564 -21.2133,26.8701 19.799,11.3137 36.7696,12.7279 45.2549,2.8284 8.4853,-9.8995 14.236,-39.097 -2.9853,-36.0269 -6.9706,1.2426 -21.0563,6.3284 -21.0563,6.3284 z"
       id="path3919"
       inkscape:connector-curvature="0"
       sodipodi:nodetypes="csssc" />
    <path
       style="fill:#ffffff;fill-opacity:0.51442309;fill-rule:nonzero;stroke:none"
       d="m -810.37,856.5566 c 0,0 -54.5,18 -3,33.5 0.5289,0.7108 -64.5082,-14.676 3,-33.5 z"
       id="path3921"
       inkscape:connector-curvature="0"
       sodipodi:nodetypes="ccc" />
    <path
       style="fill:#000000;fill-opacity:0.5432692;fill-rule:nonzero;stroke:none"
       d="m -783.87,848.5566 c 9.1009,2.5994 11.3933,23.8347 -4.1412,39.2981 16.2079,-11.0076 21.2237,-31.6935 4.1412,-39.2981 z"
       id="path3941"
       inkscape:connector-curvature="0"
       sodipodi:nodetypes="ccc" />
    <path
       style="fill:#dcdcdc;fill-opacity:0.65865383;fill-rule:nonzero;stroke:none"
       d="m -797.6162,702.77847 c 0.4094,-2.82174 -53.2778,78.12553 -26,80.00003 37.422,2.5716 61.0286,-43.4094 64.5355,-52.53556 9.1401,-23.78539 -31.7046,-34.73602 -38.5355,-27.46447 z"
       id="path3943"
       inkscape:connector-curvature="0"
       sodipodi:nodetypes="cssc" />
    <path
       style="fill:#000000;fill-opacity:0.25;fill-rule:nonzero;stroke:none"
       d="m -952.6536,923.3759 c 2.1035,-0.969 17.6609,-6.7659 9.1349,-11.6866 -8.5259,-4.9206 -15.8338,-5.5357 -19.4878,-1.2301 -3.654,4.3056 -6.1304,17.0044 1.2855,15.6692 3.0017,-0.5405 9.0674,-2.7525 9.0674,-2.7525 z"
       id="path3919-0"
       inkscape:connector-curvature="0"
       sodipodi:nodetypes="csssc" />
    <path
       style="fill:#ffffff;fill-opacity:0.80769228;fill-rule:nonzero;stroke:none"
       d="m -1096.3849,986.0914 c 12.8797,22.3656 93.3366,-100.9207 45.9274,-70.4747 -22.6498,14.5456 -73.5192,29.5651 -75.9857,33.9263 -7.1091,12.5701 21.5702,41.7912 30.0583,36.5484 z"
       id="path3943-9"
       inkscape:connector-curvature="0"
       sodipodi:nodetypes="cssc" />
    <path
       style="fill:#000000;fill-opacity:0.28846154;fill-rule:nonzero;stroke:none"
       d="m -1179.2735,570.5466 c 3.3893,10.77021 12.4272,29.0796 7.9081,52.77407 -4.5188,23.69448 -6.7784,-20.46341 -6.7784,40.92684 0,61.39025 -18.0758,53.8511 14.6866,109.85629 32.7624,56.0051 20.3354,80.7766 13.557,108.7792 -6.7785,28.0025 -33.8922,89.3928 -35.0221,100.163 -1.1297,10.7702 -3.3891,11.8472 3.3893,35.5418 6.7785,23.6945 21.4652,30.1566 35.0219,22.6174 13.5569,-7.5391 23.7245,-22.6174 35.0221,-12.9242 11.2973,9.6932 -6.7785,16.1553 25.9839,12.9242 32.7624,-3.231 115.2334,3.2311 131.0497,4.3081 15.8164,1.0771 82.4712,12.9243 103.9363,8.6162 21.4649,-4.3081 31.6327,-5.3851 57.6167,-9.6932 25.984,-4.3081 31.6327,4.3081 51.9681,0 20.3354,-4.3081 41.8003,-11.8472 38.4112,-24.7715 -3.3893,-12.9243 -6.7787,-14.0013 -5.6487,-45.235 1.1297,-31.2336 10.1676,-76.4685 2.2594,-100.163 -7.9082,-23.6945 -13.5568,-35.5417 -13.5568,-73.2375 0,-37.6958 15.8162,-53.85109 18.0758,-78.6226 2.2594,-24.77151 15.8164,-56.00514 -1.1297,-78.62261 -16.9461,-22.61746 -14.6866,-9.6932 -22.5948,-34.4647 -7.9082,-24.77151 -2.2596,-38.77279 -24.8545,-40.92684 -22.5946,-2.15404 -46.3191,17.23236 -61.0058,18.30938 -14.6866,1.07701 -16.9461,3.23106 -38.4112,-2.15405 -21.4651,-5.3851 -44.0599,-4.30808 -64.3951,0 -20.3354,4.30809 -27.1139,16.15534 -55.3573,6.46214 -28.2436,-9.69321 -51.9681,-20.46342 -67.7845,-15.0783 -15.8164,5.38509 -44.0597,9.69319 -57.6167,12.92425 -13.5569,3.23107 -29.3733,8.61618 -41.8003,6.46213 -12.4272,-2.15404 -53.0978,-6.46213 -53.0978,-6.46213 l -6.7785,-23.69448 518.5508,-5.38511 -5.6488,511.58552 -536.6266,5.3851 2.2595,-511.58551 z"
       id="path3876-5"
       inkscape:connector-curvature="0" />
    <path
       style="fill:#784421;fill-opacity:1;fill-rule:nonzero;stroke:none"
       d="M 87 -15 C 87 5 88 5 87 17 C 86 29 80 26 80 48 C 80 70 78 64 80 76 L 84.5 102.9375 C 76.285846 101.92206 57.744855 99.95216 42 97 C 26 94 28 97 17 99 C 6 101 -4 101 -24 98 L -33 101 C -33 101 -36 110 -13 111 C 1.9758824 111.65113 5.975922 111.41454 12.15625 110.09375 C 12.422461 116.91042 14 157.39174 14 162 C 14 167 18 174 13 184 C 8.9504792 192.09904 8.2088352 199.27537 8.0625 201.8125 C 1.4530495 202.65049 -1.0511336 203.4084 -29 200 L -31 205 C -31 205 -23 212 -12 212 C -1 212 30 212 66 211 C 72.662573 210.81493 77.224978 210.63525 81.1875 210.4375 C 83.033223 215.32467 84.992207 222.39048 83 237 C 80 259 78 257 77 271 C 76 285 76 298 76 298 C 76 298 76.28125 298.85352 76.84375 299.75 C 61.4731 300.51244 48.406104 301.75427 21 303 C -23 305 -3 303 -29 294 C -29 294 -29 301 -28 308 C -27 315 5 315 40 314 C 75 313 67 314 118 318 C 131.50772 319.05943 140.37539 319.53342 146.9375 319.65625 C 146.99864 325.43864 147.62748 333.85891 151 346 C 156 364 153 384 149 390 C 145 396 145 392 145 401 C 145 404.33384 144.87571 407.23569 144.90625 409.59375 C 133.6255 406.93078 131.0654 401.25613 107 399 C 75 396 78 403 39 406 C 0 409 -3 409 -16 409 C -16 409 -35 408 -41 411 C -47 414 -35 419 -12 416 C 8.1102877 413.37692 18.292404 410.75492 47.9375 409.46875 C 46.32983 411.54971 46.15923 416.62419 50 429 C 59 458 60 457 60 471 C 60 485 57 474 58 495 C 59 516 68 528 68 528 C 68 528 72 529 69 484 C 66 439 66 448 66 432 C 66 420.51023 60.844811 412.65458 57.9375 409.125 C 59.282795 409.08573 60.582405 409.03458 62 409 C 103 408 84 413 135 421 C 186 429 158 421 213 415 C 218.26562 414.42557 222.64193 413.96414 226.625 413.5625 C 225.40582 422.77072 223 422.75353 223 438 C 223 455 225 488 224 497 C 223 506 221 492 221 515 C 221 538 227 542 227 542 C 227 542 231 544 230 529 C 229 514 228 518 229 499 C 230 480 234 485 234 463 C 234 441 233 432 235 428 C 236.38804 425.22392 232.03639 417.69903 229.21875 413.3125 C 263.75065 409.92254 251.58286 413.23262 294 415 C 342 417 318 420 345 422 C 349.62775 422.3428 353.58461 422.5074 357.3125 422.53125 C 357.68067 428.48289 358.32699 435.84769 359 452 C 360 476 365 467 365 492 C 365 517 358 536 363 545 C 368 554 370 572 372 555 C 374 538 370 539 370 518 C 370 497 375 487 370 469 C 365 451 360 460 364 443 C 366.06725 434.21418 366.77547 427.07798 367 422.1875 C 381.14519 420.9923 396.78222 416.78412 438 408 C 499 395 465 410 480 414 C 495 418 508 416 525 409 C 542 402 522 400 518 397 C 514.19612 394.14709 484.17323 400.3386 455.4375 401.8125 C 456.48977 401.04688 457.3871 399.83869 458 398 C 461 389 464 393 464 372 C 464 351 453 323 454 317 C 454.29218 315.24692 454.64316 313.77212 455.03125 312.53125 C 513.22115 309.57582 459.02156 315.1393 480 318 C 502 321 500 320 523 315 C 546 310 529 306 529 306 C 529 306 523 298 514 301 C 505 304 475 305 455 305 C 440.01422 305 426.13194 304.9952 402.875 303.3125 C 402.94923 301.49519 403 299.47912 403 297 C 403 269 406 272 402 256 C 398 240 394 220 394 214 C 394 211.2363 393.16552 208.28121 392.25 205.875 C 404.14168 205.16638 406.58512 206.58535 437 208 C 480 210 455 214 481 220 C 507 226 501 219 528 214 C 555 209 539 205 535 194 C 531 183 535 194 511 197 C 496.34037 198.83245 484.64429 201.79403 467.75 202.21875 C 467.84196 201.83365 467.9116 201.44198 468 201 C 470 191 472 192 468 172 C 464 152 465 147 466 140 C 467 133 469 134 467 120 C 465 106 464 101 464 101 L 460.84375 97.0625 C 463.71928 96.408579 466.5927 95.757179 470 95 C 506 87 490 99.999999 506 104 C 522 108 527 94 527 94 C 527 94 516 87 510 89 C 504 91 475 89 463 89 C 451 89 429 95 420 96 C 413.33819 96.740201 390.3281 95.831913 375.53125 95.3125 C 375.99337 94.166229 376.46993 92.766908 377 91 C 380 81 376 84 373 76 C 370 68 370 70 367 55 C 364 40 367 48 375 22 C 383 -4 378 13 380 1 C 382 -11 374 -12 374 -12 C 374 -12 374 1 371 19 C 368 37 367 36 363 49 C 359 62 360 65 364 75 C 366.62467 81.561664 369.1304 89.939348 370.625 95.15625 C 367.80475 95.066455 365.34927 95 364 95 L 314 95 C 302 95 279 104 272 104 C 267.95079 104 256.47754 104.99743 243.125 105.84375 L 238 102 C 238 102 233 94 236 88 C 239 82 243 59 242 50 C 241 41 240 33 241 24 C 242 15 242 8 242 -2 C 242 -12 228 -15 228 -15 C 229 -6 236 -4 237 17 C 238 38 233 62 233 68 C 233 74 234 85 231 93 C 228.3663 100.02321 228.81177 104.74641 232.34375 106.46875 C 225.82121 106.78713 219.19904 107 213 107 C 190 107 167 96 167 96 C 167 96 139 99 135 100 C 132.03268 100.74183 110.3863 102.56885 96.125 103.0625 C 96.085674 102.69234 96.049485 102.44537 96 102 C 95 92.999999 97 95 92 79 C 87 63 84 67 87 54 C 90 41 88 41 92 28 C 96 15 97 19 96 5 C 95 -9 87 -15 87 -15 z M 459.65625 97.3125 C 458.44686 101.97649 454.42996 119.00646 457 131 C 460 145 466 145 463 159 C 460 173 459 170 459 181 C 459 188.53152 460.87996 197.36229 462.0625 202.25 C 452.48138 202.16198 441.20833 201.26042 427 199 C 383 192 395 200 359 200 C 341.19256 200 332.44763 200.48606 325.96875 201.34375 C 327.27913 198.96419 328.04216 197.48794 326 190 C 323 179 322 182 322 169 C 322 156 321 158 322 146 C 323 134 319 126 319 123 C 319 120 314 115 316 110 C 316.58808 108.5298 316.98816 107.06184 317.28125 105.71875 C 325.45722 105.02257 334.21695 104.64868 343 105 C 368 106 388 107 409 106 C 427.75544 105.10688 433.11353 103.36293 459.65625 97.3125 z M 36.09375 105.4375 C 43.125 105.20312 44.25 108.75 69 114 C 102 121 92 116 103 115 C 113.29679 114.06393 133.22282 111.37117 161.15625 111.03125 C 160.17698 116.34319 158.94181 126.08116 161 135 C 164 148 156 181 156 181 L 158.46875 195.90625 C 152.14079 195.90566 143.86878 195.69816 132 195 C 81 192 97 190 84 194 C 71 198 48 201 23 201 C 22.402606 201 21.929138 200.99561 21.375 201 C 22.982884 198.09018 24 193.36593 24 183 C 24 165 24 172 21 151 C 18 130 16 124 17 118 C 17.518195 114.89083 16.150984 111.80553 14.71875 109.53125 C 17.548749 108.87549 20.99239 108.05423 26 107 C 30.75 106 33.75 105.51562 36.09375 105.4375 z M 303.09375 107.28125 C 301.72421 112.02129 300.03833 114.45367 304 120 C 309 127 312 123 314 134 C 316 145 316 146 316 156 C 316 166 319 166 316 176 C 313 186 306 189 307 197 C 307.49057 200.92453 307.75809 203.14949 308.59375 204.53125 C 307.71878 204.68822 306.97821 204.83697 306 205 C 288 208 249 206 209 199 C 182.17632 194.30586 179.58001 195.44895 165.4375 195.8125 C 165.62906 195.21445 165.79716 194.67612 166 194 C 172 174 175 168 174 152 C 173 136 172 127 169 119 C 167.72304 115.59478 166.28497 112.95578 165.03125 111 C 165.68989 110.99727 166.33301 111 167 111 L 246 111 C 262 111 271 111 282 110 C 286.7594 109.56733 294.22656 108.40158 303.09375 107.28125 z M 182.40625 205.28125 C 210.79614 205.46216 191.4375 210.375 215 212 C 224.45668 212.65218 232.16652 213.29217 239.46875 213.875 C 239.93809 219.41434 240.75236 227.89036 242 236 C 244 249 248 248 244 262 C 240 276 238 282 236 290 C 234 298 235 309 235 309 C 234.65606 309.00059 234.3515 309 234 309 C 205 309 211 311 162 306 C 113 301 150 299 111 299 C 99.771736 299 91.319998 299.18492 83.75 299.46875 C 86.582377 296.50837 88 291.93928 88 281 L 88 255 C 88 242 88 236 90 226 C 91.151361 220.24319 89.667676 214.16145 88.1875 210.03125 C 99.950418 209.20699 106.7495 208.08458 154 206 C 166.75 205.4375 175.85474 205.2395 182.40625 205.28125 z M 288 310 C 300.96796 310 309.6119 310.26925 315.71875 310.71875 C 312.16101 312.87534 310.60576 315.43026 313 328 C 317 349 321 346 323 361 C 325 376 327 378 324 389 C 322.73829 393.62628 320.98838 397.50004 319.78125 400.5625 C 308.37828 402.11796 296.48723 404.36802 275 405 C 241 406 255 404 230 404 C 205 404 214 406 203 410 C 192 414 187 411 160 411 C 159.38338 411 158.8018 410.97796 158.21875 410.96875 C 158.57837 408.91479 158.84767 406.3512 159 403 C 160 381 162 391 160 370 C 158 349 153 348 156 334 C 157.55596 326.73885 159.92281 322.18477 161 319.1875 C 168.33673 318.41878 174.52713 316.97226 193 316 C 231 314 228 310 288 310 z M 328.8125 312.9375 C 332.80715 314.61227 331.50656 316.48102 345 317 C 370.37945 317.97613 373.37275 317.0153 441.375 313.25 C 437.63421 315.36817 435.77306 319.24116 439 328 C 446 347 451 336 449 352 C 447 368 445 401 445 401 C 445 401 446.00038 401.61932 447.46875 402.15625 C 421.02732 403.18523 417.59605 404.86838 387 402 C 355 399 363 399 341 399 C 337.60415 399 334.51893 399.13859 331.5625 399.34375 C 330.08899 387.3238 330 388.54769 330 375 C 330 360 330 371 328 349 C 326 327 328 325 329 318 C 329.24687 316.27192 329.13146 314.56027 328.8125 312.9375 z "
       id="path3872"
       transform="translate(0,552.36216)" />
    <path
       style="fill:#ffffff;fill-opacity:0.4807692;fill-rule:nonzero;stroke:none"
       d="m 507,465.36216 c 0,0 40,5 52,5 12,0 32,-1 41,0 9,1 26,2 32,2 6,0 8,6 10,-3 2,-9 -2,-22 -2,-27 0,-5 -1,-32 -1,-32 0,0 -5,-12 -5,-8 0,4 -1,12 -1,17 0,5 -4,21 -4,25 0,4 0,18 0,18 0,0 -20,1 -39,1 -19,0 -35,0 -52,0 -17,0 -31,2 -31,2 z"
       id="path3926"
       inkscape:connector-curvature="0" />
    <path
       style="fill:#502d16;fill-opacity:0.4375;fill-rule:evenodd;stroke:none"
       d="m 257.10412,844.64894 0.66233,-44.6429 -5.62974,-18.5714 0.33116,-5 c 0,0 20.20083,3.9285 24.83709,5.3571 4.63625,1.4286 72.19312,0.3572 74.18009,0.3572 1.98697,0 27.81753,-3.2143 27.81753,-3.2143 0,0 1.32465,4.6428 -1.65581,5 -2.98044,0.3571 -18.87618,4.2857 -23.84359,6.4285 -4.96742,2.1429 -21.19431,3.2143 -23.84361,3.5715 -2.64928,0.3571 -27.48636,4.2857 -33.44727,4.6428 -5.9609,0.3572 -22.1878,-1.7857 -24.50592,-0.3571 -2.31813,1.4286 -3.31162,-1.0714 -4.63626,6.7857 -1.32464,7.8571 -4.96741,20.3571 -4.63626,23.5714 0.33117,3.2143 -5.62974,16.0715 -5.62974,16.0715 z"
       id="path4348-1"
       inkscape:connector-curvature="0" />
    <path
       style="fill:#5d3215;fill-opacity:1;fill-rule:evenodd;stroke:none"
       d="m 379.75895,774.13924 c 0,0 -28.14955,1.0102 -39.60022,2.5254 -11.45067,1.5153 -23.37845,1.5153 -35.30623,2.0203 -11.92778,0.5051 -23.85555,1.5153 -28.14955,0.5051 -4.294,-1.0101 -14.79044,-7.5761 -19.56156,-7.5761 -4.77111,0 -9.54222,-4.5457 -9.54222,0 0,4.5456 4.77111,27.2741 6.20244,31.8198 1.43134,4.5457 2.86267,10.6066 1.43134,17.1726 -1.43134,6.566 -2.86267,18.1827 -2.86267,18.1827 l 4.294,8.5863 c 0,0 2.38556,-5.5558 2.38556,-7.5761 0,-2.0203 -0.47712,-7.0711 0,-9.5965 0.47711,-2.5254 0.95422,-14.6472 0.95422,-16.6675 0,-2.0203 -0.95422,-7.0711 -0.95422,-9.5965 0,-2.5253 -2.16396,-13.2799 -2.16396,-13.2799 0,0 -7.34025,-13.6834 0.77064,-10.653 8.1109,3.0305 18.70906,6.6885 30.15973,6.6885 11.45066,0 17.99047,-3.3009 33.25804,-1.7857 15.26755,1.5152 26.01949,-0.061 33.65328,-1.0714 7.63378,-1.0101 6.02879,-0.2346 13.66257,-2.76 7.63378,-2.5254 15.1857,2.6585 15.66281,-0.372 0.47711,-3.0304 -4.294,-6.566 -4.294,-6.566 z"
       id="path4344-7"
       inkscape:connector-curvature="0"
       sodipodi:nodetypes="csscssssccsssscssscssc" />
    <path
       style="fill:#a05a2c;fill-opacity:0.37019234;fill-rule:evenodd;stroke:none"
       d="m 274.21592,846.05914 c 0,0 24.95179,3.8314 35.05332,6.3568 10.10152,2.5254 45.96194,1.5152 55.05331,1.5152 9.09137,0 23.73859,-3.5355 23.73859,-3.5355 0,0 4.54568,-6.566 3.03045,-19.698 -1.51523,-13.132 -2.52538,-32.8299 -2.52538,-37.3756 0,-4.5457 -1.41434,4.4262 -1.41434,4.4262 l -0.35343,7.5693 c -0.0613,1.313 4.79823,17.2989 0.25254,25.3801 -4.54568,8.0813 -3.03045,11.1117 -7.07106,13.6371 -4.04061,2.5254 -5.05077,6.0609 -16.66752,3.0304 -11.61676,-3.0304 -20.20305,-4.0406 -39.39595,-3.5355 -19.1929,0.5051 -33.33504,0.5051 -43.43656,0.5051 -10.10153,0 -6.26397,1.7244 -6.26397,1.7244 z"
       id="path4346-4"
       inkscape:connector-curvature="0"
       sodipodi:nodetypes="csscsscssssssc" />
    <path
       style="fill:#784421;fill-opacity:1;stroke:none"
       d="m 220.04492,963.3038 c 0.25253,-1.2627 4.54568,-15.4047 7.57614,-17.425 3.03046,-2.0204 8.83884,-11.6168 9.34391,-18.1829 0.50508,-6.5659 -0.75761,-10.85911 0.50508,-14.14211 1.26269,-3.2829 5.3033,-9.3438 6.31345,-11.8692 1.01015,-2.5254 11.86929,-6.566 1.76777,-6.0609 -10.10153,0.5051 -33.84011,-0.7576 -34.85026,-2.0203 -1.01016,-1.2628 -6.566,-4.7983 -2.27285,-3.7882 4.29315,1.0102 16.16244,4.5457 17.93021,4.0406 1.76777,-0.5051 11.36422,-0.5051 14.89975,-0.5051 3.53553,0 8.83883,1.2627 9.34391,-1.5152 0.50508,-2.7779 -1.26269,-6.8184 -1.26269,-6.8184 l 4.79822,2.5254 c 0,0 0.25254,2.5252 -0.25253,4.5455 -0.50508,2.0204 -3.03046,5.0508 -1.01016,6.566 2.02031,1.5153 20.70813,8.3338 22.4759,7.8287 1.76777,-0.5051 6.81853,-2.7779 6.81853,-2.7779 0,0 3.78807,2.7779 6.81853,0.2525 3.03046,-2.5252 4.54568,-6.3134 5.3033,-8.0812 0.75761,-1.7678 -3.53554,-7.5761 -4.79823,-9.5964 -1.26269,-2.0203 -2.0203,-2.2729 -1.51522,-5.3033 0.50507,-3.0305 1.51522,-5.5559 1.51522,-5.5559 0,0 0.25254,4.5458 1.01016,5.5559 0.75761,1.0101 2.0203,5.8083 5.05076,8.5863 3.03046,2.7779 4.54569,7.071 3.03046,10.1015 -1.51523,3.0305 -5.80838,7.3237 -7.07107,8.5863 -1.26269,1.2628 -9.09137,6.566 -10.6066,5.8084 -1.51523,-0.7577 1.76776,-4.5457 -7.82868,-4.2932 -9.59645,0.2525 -18.94037,4.0406 -20.70813,-1.7678 -1.76777,-5.8083 -1.26269,-8.5863 -2.52538,-7.071 -1.26269,1.5152 -5.80838,7.5761 -6.31346,10.354 -0.50507,2.778 -1.26269,4.5457 2.02031,6.566 3.28299,2.0203 13.13198,8.83891 13.13198,8.83891 0,0 -2.0203,2.2728 -4.54569,0 -2.52538,-2.2729 -7.82868,-6.3135 -10.10152,-7.57621 -2.27284,-1.2627 -3.283,0.5051 -3.78807,4.04061 -0.50508,3.5356 -0.25254,8.3338 -0.25254,11.6168 0,3.283 0,2.0203 -1.76777,7.0711 -1.76776,5.0507 -2.0203,8.3337 -2.0203,12.1218 0,3.7881 5.55584,4.7982 -0.25254,7.0711 -5.80838,2.2728 -15.9099,2.2728 -15.9099,2.2728 z"
       id="path4422-0"
       inkscape:connector-curvature="0" />
    <path
       style="fill:#784421;fill-opacity:1;fill-rule:evenodd;stroke:none"
       d="m 126.01414,829.14723 c 0,0 -12.51696,-12.75589 -14.75213,-19.762 -2.23528,-7.0061 -15.731141,-18.72148 -15.731141,-18.72148 l -14.258837,-3.60708 -10.882897,40.75725 -16.979511,6.58221 -7.430076,21.44999 26.105413,27.5003 10.929242,26.9531 L 70.373916,893.5049 57.73353,876.71029 43.289705,867.0451 l -7.252794,-5.84226 -2.296841,-9.02548 9.757648,-11.41481 3.20637,-27.38474 13.888861,-8.5091 -3.769042,-24.13987 -17.873721,-22.69855 -4.655346,-20.07031 -3.799773,-25.14956 3.244808,6.97528 8.262424,5.81144 10.613221,-16.49405 -3.730404,10.22014 42.344971,-3.31428 -19.060632,4.62452 -18.050904,4.5937 -10.983197,4.37787 -4.925122,4.19288 5.634244,19.0298 8.6324,17.92762 11.908139,25.91259 -0.547258,15.17607 -15.784894,12.60948 5.233435,5.90393 12.8483,-9.48794 4.740133,-10.25098 9.110189,-32.61814 5.202604,4.89426 15.083576,-2.48184 10.68259,18.87565 13.68085,17.77346 z"
       id="path4463"
       inkscape:connector-curvature="0" />
    <path
       style="fill:#784421;fill-opacity:1;fill-rule:evenodd;stroke:none"
       d="m 257.72334,703.39266 -16.16244,-12.1218 -30.30458,-2.0203 -9.09137,-11.1117 -10.10153,6.0609 5.05077,1.0101 11.11167,17.1726 18.18275,-7.071 18.18275,4.0406 5.05076,8.0812 c 0,0 -28.28427,4.0405 -17.1726,5.0508 11.11168,1.0101 19.1929,1.0101 19.1929,1.0101 l -12.12183,11.1117 6.06092,3.0304 17.17259,6.0609 9.09137,-4.0405 -2.0203,-12.122 -3.03046,-13.132 z"
       id="path4465"
       inkscape:connector-curvature="0" />
    <path
       style="fill:#784421;fill-opacity:1;fill-rule:nonzero;stroke:none"
       d="m -15,10.999999 c 41,14 69,7 77,5 8,-2 52,-2 83,-3 31,-1 66,-8 93,-7 27,1 30,1 71,6 41,5 66,5 88,4 22,-1 40,-7 58,-9 18,-2 31,6 46,5 15,-1 29,-19 18,-23 -11,-4 -241,-12 -331,-15 -90,-3 -211,11 -211,11 z"
       id="path4025"
       inkscape:connector-curvature="0"
       transform="translate(0,552.36216)" />
    <path
       style="fill:#784421;fill-opacity:1;fill-rule:nonzero;stroke:none"
       d="m -21,504 c 6,-2 12,-7 23,-9 11,-2 8,-3 32,-2 24,1 31,1 67,4 36,3 115,1 126,0 11,-1 -1,0 41,-1 42,-1 49,-3 68,-4 19,-1 25,5 49,7 24,2 22,-8 44,-8 22,0 18,0 39,0 21,0 11,-4 35,-5 24,-1 30,7 21,21 -9,14 27,37 -61,42 -88,5 -98,15 -213,3 -115,-12 -63,3 -175,-16 -112,-19 -96,-32 -96,-32 z"
       id="path4027"
       inkscape:connector-curvature="0"
       transform="translate(0,552.36216)" />
    <path
       style="fill:#784421;fill-opacity:1;fill-rule:nonzero;stroke:none"
       d="M -22,84.999999 C -11,96.999999 -6,101 -2,103 c 4,2 21,0 19,7 -2,7 9,51 4,63 -5,12 4,30 -6,33 -10,3 -33,8 -33,8 0,0 3,16 4,39 1,23 11,54 13,58 2,4 15,9 16,21 1,12 0,30 0,37 0,7 -11,23 -12,29 -1,6 -3,7 -6,19 -3,12 -10,32 -7,50 3,18 17,33 10,41 -7,8 -35,-22 -43,-57 -8,-35 -1,-308 3,-320 4,-12 18,-46.000001 18,-46.000001 z"
       id="path4029"
       inkscape:connector-curvature="0"
       transform="translate(0,552.36216)" />
    <path
       style="fill:#784421;fill-opacity:1;fill-rule:nonzero;stroke:none"
       d="m 498,2.999999 c 0,0 0,2 -2,13 -2,11 -2,21 0,32 2,11 -3,21 -2,28 1,7 0,8 6,16 6,8 20,73.000001 20,85.000001 0,12 -11,34 -15,38 -4,4 -5,11 -5,15 0,4 -6,11 -5,23 1,12 5,21 5,30 0,9 -5,23 -1,26 4,3 15,45 15,62 0,17 -13,32 -16,45 -3,13 -5,16 -6,30 -1,14 -5,35 0,40 5,5 17,12 21,11 4,-1 22,-22 20,-87 -2,-65 20,-367.000001 13,-371.000001 -7,-4 -48,-36 -48,-36 z"
       id="path4031"
       inkscape:connector-curvature="0"
       transform="translate(0,552.36216)" />
  </g>
</svg>
