<?xml version="1.0" encoding="UTF-8" standalone="no"?>
<!-- Created with Inkscape (http://www.inkscape.org/) -->

<svg
   xmlns:dc="http://purl.org/dc/elements/1.1/"
   xmlns:cc="http://creativecommons.org/ns#"
   xmlns:rdf="http://www.w3.org/1999/02/22-rdf-syntax-ns#"
   xmlns:svg="http://www.w3.org/2000/svg"
   xmlns="http://www.w3.org/2000/svg"
   xmlns:sodipodi="http://sodipodi.sourceforge.net/DTD/sodipodi-0.dtd"
   xmlns:inkscape="http://www.inkscape.org/namespaces/inkscape"
   width="4096"
   height="2048"
   id="svg2"
   version="1.1"
   inkscape:version="0.48.4 r9939"
   sodipodi:docname="cubotextura.svg"
   inkscape:export-filename="C:\Users\Pedro\Desktop\makemake\pedro\cubo_cesped.png"
   inkscape:export-xdpi="90"
   inkscape:export-ydpi="90">
  <defs
     id="defs4" />
  <sodipodi:namedview
     id="base"
     pagecolor="#ffffff"
     bordercolor="#666666"
     borderopacity="1.0"
     inkscape:pageopacity="0.0"
     inkscape:pageshadow="2"
     inkscape:zoom="0.24748737"
     inkscape:cx="1574.1212"
     inkscape:cy="1547.6676"
     inkscape:document-units="px"
     inkscape:current-layer="layer1"
     showgrid="false"
     fit-margin-top="0"
     fit-margin-left="0"
     fit-margin-right="0"
     fit-margin-bottom="0"
     inkscape:window-width="1920"
     inkscape:window-height="1028"
     inkscape:window-x="-8"
     inkscape:window-y="-8"
     inkscape:window-maximized="1" />
  <metadata
     id="metadata7">
    <rdf:RDF>
      <cc:Work
         rdf:about="">
        <dc:format>image/svg+xml</dc:format>
        <dc:type
           rdf:resource="http://purl.org/dc/dcmitype/StillImage" />
        <dc:title />
      </cc:Work>
    </rdf:RDF>
  </metadata>
  <g
     inkscape:label="Capa 1"
     inkscape:groupmode="layer"
     id="layer1"
     transform="translate(182.35539,882.39355)">
    <rect
       style="fill:#aade87;fill-opacity:1;fill-rule:nonzero;stroke:#7bbc6e;stroke-width:120;stroke-linejoin:round;stroke-miterlimit:4;stroke-opacity:1;stroke-dasharray:none"
       id="rect2996"
       width="1928"
       height="1928"
       x="-122.35539"
       y="-822.39355" />
    <rect
       style="fill:#edba7d;fill-opacity:1;fill-rule:nonzero;stroke:#d48751;stroke-width:25;stroke-linejoin:round;stroke-miterlimit:4;stroke-opacity:1;stroke-dasharray:none"
       id="rect2996-4-8"
       width="2023"
       height="515.98993"
       x="1878.1447"
       y="-719.05713" />
    <path
       style="fill:none;stroke:#774c2c;stroke-width:30;stroke-linecap:round;stroke-linejoin:round;stroke-miterlimit:4;stroke-opacity:0.17254902;stroke-dasharray:none;stroke-dashoffset:0"
       d="m 1906.4881,-258.84155 c 189.7506,-67.16049 318.4493,-34.84019 445.6013,0 140.5685,32.58483 296.3072,46.33555 500.4449,0 220.8889,-57.18241 406.2678,-46.8601 572.4267,0 134.2284,41.31704 282.9508,52.71885 462.7401,0"
       id="path3918-7-1-6"
       inkscape:connector-curvature="0"
       sodipodi:nodetypes="ccccc" />
    <path
       style="fill:none;stroke:#774c2c;stroke-width:50;stroke-linecap:round;stroke-linejoin:round;stroke-miterlimit:4;stroke-opacity:0.17254902;stroke-dasharray:none;stroke-dashoffset:0"
       d="m 1900.4272,-355.8162 c 189.3637,-67.16049 317.7999,-34.84019 444.6927,0 140.2817,32.58483 295.7027,46.33556 499.4242,0 220.4383,-57.18241 405.4391,-46.8601 571.2593,0 133.9545,41.31705 282.3737,52.71886 461.7962,0"
       id="path3918-7-7"
       inkscape:connector-curvature="0"
       sodipodi:nodetypes="ccccc" />
    <path
       style="fill:none;stroke:#d48751;stroke-width:50;stroke-linecap:round;stroke-linejoin:round;stroke-miterlimit:4;stroke-opacity:1;stroke-dasharray:none;stroke-dashoffset:0"
       d="m 1891.0339,-384.91521 c 190.8149,-67.16049 320.2353,-34.84019 448.1006,0 141.3568,32.58483 297.9689,46.33555 503.2516,0 222.1277,-57.18241 408.5463,-46.8601 575.6372,0 134.9811,41.31704 284.5377,52.71885 465.3352,0"
       id="path3918-7"
       inkscape:connector-curvature="0"
       sodipodi:nodetypes="ccccc" />
    <path
       style="fill:none;stroke:#d48751;stroke-width:30;stroke-linecap:round;stroke-linejoin:round;stroke-miterlimit:4;stroke-opacity:1;stroke-dasharray:none;stroke-dashoffset:0"
       d="m 1893.4011,-277.03698 c 191.2018,-67.16049 320.8848,-34.84019 449.0093,0 141.6435,32.58483 298.5733,46.33555 504.2723,0 222.5782,-57.18241 409.3749,-46.8601 576.8046,0 135.2549,41.31704 285.1148,52.71885 466.2791,0"
       id="path3918-7-1"
       inkscape:connector-curvature="0"
       sodipodi:nodetypes="ccccc" />
    <path
       style="fill:#000000;fill-opacity:0.31730766;fill-rule:nonzero;stroke:none"
       d="m 1872.8746,-832.77807 0,369.87123 158.2522,-5.71429 14.2857,-108.60627 44.4048,-2.85714 17.1429,110.27995 184.1374,4.04061 28.5714,-108.60627 40.3641,-5.71429 11.4286,117.1777 197.9329,0 11.4285,-115.50402 55.4868,-1.18347 -11.4285,116.68749 229.708,-11.42857 2.8571,-106.9326 71.7927,15.46918 8.5714,100.03485 205.3209,8.57143 -5.7143,-124.07546 46.9153,-2.85714 14.2857,119.54463 217.096,4.53082 14.2857,-110.27994 40.6959,-3.46754 5.7143,112.31891 218.2524,-3.67531 c 0.2114,-0.009 0,-106.32469 0,-106.32469 l 58.7399,-8.57143 -7.1428,115.71429 141.8694,1.42857 -10e-5,-366.40371 z"
       id="path4064-1"
       inkscape:connector-curvature="0"
       sodipodi:nodetypes="ccccccccccccccccccccccccccccccccc" />
    <path
       style="fill:#aade87;fill-opacity:1;fill-rule:nonzero;stroke:#7bbc6e;stroke-width:30;stroke-miterlimit:4;stroke-opacity:1;stroke-dasharray:none"
       d="m 1882.3964,-867.39353 0,369.87123 106.8236,0 0,-117.1777 141.5477,0 0,113.13709 132.7088,4.04061 0,-117.1777 137.507,0 0,117.1777 140.79,0 0,-121.21831 135.4868,-4.04061 0,125.25892 146.8509,0 0,-121.21831 137.5069,4.04061 0,117.1777 136.7495,0 0,-121.21831 135.4867,0 0,125.25892 142.8103,-4.04061 0,-113.13709 134.9816,-3.46754 0,118.0332 143.9667,-6.53245 c 0.2114,-0.009 0,-114.89612 0,-114.89612 l 133.0256,-8.57143 0,128.57143 109.0123,0 -10e-5,-366.40371 z"
       id="path4064"
       inkscape:connector-curvature="0"
       sodipodi:nodetypes="ccccccccccccccccccccccccccccccccc" />
    <path
       style="fill:#7bbc6e;fill-opacity:1;fill-rule:nonzero;stroke:#7bbc6e;stroke-width:50;stroke-linecap:square;stroke-miterlimit:4;stroke-opacity:1;stroke-dasharray:none"
       d="m 1913.0918,-838.3134 1954.874,0"
       id="path3804"
       inkscape:connector-curvature="0" />
  </g>
</svg>
