<?xml version="1.0" encoding="UTF-8" standalone="no"?>
<!-- Created with Inkscape (http://www.inkscape.org/) -->

<svg
   xmlns:dc="http://purl.org/dc/elements/1.1/"
   xmlns:cc="http://creativecommons.org/ns#"
   xmlns:rdf="http://www.w3.org/1999/02/22-rdf-syntax-ns#"
   xmlns:svg="http://www.w3.org/2000/svg"
   xmlns="http://www.w3.org/2000/svg"
   xmlns:sodipodi="http://sodipodi.sourceforge.net/DTD/sodipodi-0.dtd"
   xmlns:inkscape="http://www.inkscape.org/namespaces/inkscape"
   width="4096"
   height="2048"
   id="svg2"
   version="1.1"
   inkscape:version="0.48.4 r9939"
   sodipodi:docname="dibujo.svg"
   inkscape:export-filename="C:\Users\Pedro\Desktop\makemake\pedro\dibujo.png"
   inkscape:export-xdpi="90"
   inkscape:export-ydpi="90">
  <defs
     id="defs4" />
  <sodipodi:namedview
     id="base"
     pagecolor="#ffffff"
     bordercolor="#666666"
     borderopacity="1.0"
     inkscape:pageopacity="0.0"
     inkscape:pageshadow="2"
     inkscape:zoom="0.49497474"
     inkscape:cx="2696.6034"
     inkscape:cy="1361.3612"
     inkscape:document-units="px"
     inkscape:current-layer="layer1"
     showgrid="false"
     fit-margin-top="0"
     fit-margin-left="0"
     fit-margin-right="0"
     fit-margin-bottom="0"
     inkscape:window-width="1366"
     inkscape:window-height="716"
     inkscape:window-x="-8"
     inkscape:window-y="-8"
     inkscape:window-maximized="1" />
  <metadata
     id="metadata7">
    <rdf:RDF>
      <cc:Work
         rdf:about="">
        <dc:format>image/svg+xml</dc:format>
        <dc:type
           rdf:resource="http://purl.org/dc/dcmitype/StillImage" />
        <dc:title />
      </cc:Work>
    </rdf:RDF>
  </metadata>
  <g
     inkscape:label="Capa 1"
     inkscape:groupmode="layer"
     id="layer1"
     transform="translate(182.35539,882.39355)">
    <rect
       style="fill:#aade87;fill-opacity:1;fill-rule:nonzero;stroke:#7bbc6e;stroke-width:30;stroke-linejoin:round;stroke-miterlimit:4;stroke-opacity:1;stroke-dasharray:none"
       id="rect2996"
       width="2018"
       height="2018"
       x="-167.35539"
       y="-867.39355" />
    <path
       sodipodi:type="arc"
       style="fill:#80a866;fill-opacity:1;fill-rule:nonzero;stroke:none"
       id="path3012"
       sodipodi:cx="228.57143"
       sodipodi:cy="270.85715"
       sodipodi:rx="68.571426"
       sodipodi:ry="57.142857"
       d="M 297.14285,270.85715 C 297.14285,302.41628 266.44238,328 228.57143,328 190.70047,328 160,302.41628 160,270.85715 c 0,-31.55913 30.70047,-57.14286 68.57143,-57.14286 37.87095,0 68.57142,25.58373 68.57142,57.14286 z"
       transform="matrix(3.7083334,0,0,0.39999999,-695.68874,-862.7364)" />
    <path
       sodipodi:type="arc"
       style="fill:#80a866;fill-opacity:1;fill-rule:nonzero;stroke:none"
       id="path3012-1"
       sodipodi:cx="228.57143"
       sodipodi:cy="270.85715"
       sodipodi:rx="68.571426"
       sodipodi:ry="57.142857"
       d="M 297.14285,270.85715 C 297.14285,302.41628 266.44238,328 228.57143,328 190.70047,328 160,302.41628 160,270.85715 c 0,-31.55913 30.70047,-57.14286 68.57143,-57.14286 37.87095,0 68.57142,25.58373 68.57142,57.14286 z"
       transform="matrix(3.7083334,0,0,0.39999999,490.02555,-508.45069)" />
    <path
       sodipodi:type="arc"
       style="fill:#80a866;fill-opacity:1;fill-rule:nonzero;stroke:none"
       id="path3012-7"
       sodipodi:cx="228.57143"
       sodipodi:cy="270.85715"
       sodipodi:rx="68.571426"
       sodipodi:ry="57.142857"
       d="M 297.14285,270.85715 C 297.14285,302.41628 266.44238,328 228.57143,328 190.70047,328 160,302.41628 160,270.85715 c 0,-31.55913 30.70047,-57.14286 68.57143,-57.14286 37.87095,0 68.57142,25.58373 68.57142,57.14286 z"
       transform="matrix(3.7083334,0,0,0.39999999,-629.97445,891.54931)" />
    <path
       sodipodi:type="arc"
       style="fill:#80a866;fill-opacity:1;fill-rule:nonzero;stroke:none"
       id="path3012-4"
       sodipodi:cx="228.57143"
       sodipodi:cy="270.85715"
       sodipodi:rx="68.571426"
       sodipodi:ry="57.142857"
       d="M 297.14285,270.85715 C 297.14285,302.41628 266.44238,328 228.57143,328 190.70047,328 160,302.41628 160,270.85715 c 0,-31.55913 30.70047,-57.14286 68.57143,-57.14286 37.87095,0 68.57142,25.58373 68.57142,57.14286 z"
       transform="matrix(3.7083334,0,0,0.39999999,-532.83159,-108.4507)" />
    <path
       sodipodi:type="arc"
       style="fill:#80a866;fill-opacity:1;fill-rule:nonzero;stroke:none"
       id="path3012-0"
       sodipodi:cx="228.57143"
       sodipodi:cy="270.85715"
       sodipodi:rx="68.571426"
       sodipodi:ry="57.142857"
       d="M 297.14285,270.85715 C 297.14285,302.41628 266.44238,328 228.57143,328 190.70047,328 160,302.41628 160,270.85715 c 0,-31.55913 30.70047,-57.14286 68.57143,-57.14286 37.87095,0 68.57142,25.58373 68.57142,57.14286 z"
       transform="matrix(3.7083334,0,0,0.39999999,604.31127,611.54931)" />
    <path
       sodipodi:type="arc"
       style="fill:#80a866;fill-opacity:1;fill-rule:nonzero;stroke:none"
       id="path3012-9"
       sodipodi:cx="228.57143"
       sodipodi:cy="270.85715"
       sodipodi:rx="68.571426"
       sodipodi:ry="57.142857"
       d="M 297.14285,270.85715 C 297.14285,302.41628 266.44238,328 228.57143,328 190.70047,328 160,302.41628 160,270.85715 c 0,-31.55913 30.70047,-57.14286 68.57143,-57.14286 37.87095,0 68.57142,25.58373 68.57142,57.14286 z"
       transform="matrix(3.7083334,0,0,0.39999999,444.31127,120.12074)" />
    <rect
       style="fill:#edba7d;fill-opacity:1;fill-rule:nonzero;stroke:#d48751;stroke-width:25;stroke-linejoin:round;stroke-miterlimit:4;stroke-opacity:1;stroke-dasharray:none"
       id="rect2996-4-8"
       width="2023"
       height="289.71573"
       x="1878.1447"
       y="-492.78293" />
    <path
       style="fill:none;stroke:#774c2c;stroke-width:15.00000095;stroke-linecap:round;stroke-linejoin:round;stroke-miterlimit:4;stroke-opacity:0.17254902;stroke-dasharray:none;stroke-dashoffset:0"
       d="m 1898.4069,-238.6385 c 189.7506,-67.16049 318.4493,-34.84019 445.6013,0 140.5685,32.58483 296.3072,46.33555 500.4449,0 220.8889,-57.18241 406.2678,-46.8601 572.4267,0 134.2284,41.31704 282.9508,52.71885 462.7401,0"
       id="path3918-7-1-6"
       inkscape:connector-curvature="0"
       sodipodi:nodetypes="ccccc" />
    <path
       style="fill:none;stroke:#774c2c;stroke-width:20;stroke-linecap:round;stroke-linejoin:round;stroke-miterlimit:4;stroke-opacity:0.17254902;stroke-dasharray:none;stroke-dashoffset:0"
       d="m 1900.4272,-315.4101 c 189.3637,-67.16049 317.7999,-34.84019 444.6927,0 140.2817,32.58483 295.7027,46.33556 499.4242,0 220.4383,-57.18241 405.4391,-46.8601 571.2593,0 133.9545,41.31705 282.3737,52.71886 461.7962,0"
       id="path3918-7-7"
       inkscape:connector-curvature="0"
       sodipodi:nodetypes="ccccc" />
    <path
       style="fill:none;stroke:#774c2c;stroke-width:20;stroke-linecap:round;stroke-linejoin:round;stroke-miterlimit:4;stroke-opacity:0.17368421;stroke-dasharray:none;stroke-dashoffset:0"
       d="m 1901.4375,-412.38474 c 189.2669,-67.16049 317.6374,-34.84019 444.4654,0 140.21,32.58483 295.5517,46.33555 499.1691,0 220.3257,-57.18241 405.232,-46.8601 570.9674,0 133.8861,41.31704 282.2294,52.71885 461.5602,0"
       id="path3918-7-5-2"
       inkscape:connector-curvature="0"
       sodipodi:nodetypes="ccccc" />
    <path
       style="fill:none;stroke:#d48751;stroke-width:20;stroke-linecap:round;stroke-linejoin:round;stroke-miterlimit:4;stroke-opacity:1;stroke-dasharray:none;stroke-dashoffset:0"
       d="m 1895.0745,-328.34667 c 190.8149,-67.16049 320.2353,-34.84019 448.1006,0 141.3568,32.58483 297.9689,46.33555 503.2516,0 222.1277,-57.18241 408.5463,-46.8601 575.6372,0 134.9811,41.31704 284.5377,52.71885 465.3352,0"
       id="path3918-7"
       inkscape:connector-curvature="0"
       sodipodi:nodetypes="ccccc" />
    <path
       style="fill:none;stroke:#d48751;stroke-width:20;stroke-linecap:round;stroke-linejoin:round;stroke-miterlimit:4;stroke-opacity:1;stroke-dasharray:none;stroke-dashoffset:0"
       d="m 1896.3866,-428.54718 c 190.8149,-67.16049 320.2353,-34.84019 448.1006,0 141.3568,32.58483 297.9689,46.33555 503.2516,0 222.1277,-57.18241 408.5463,-46.8601 575.6372,0 134.9811,41.31704 284.5377,52.71885 465.3352,0"
       id="path3918-7-5"
       inkscape:connector-curvature="0"
       sodipodi:nodetypes="ccccc" />
    <rect
       style="fill:#aade87;fill-opacity:1;fill-rule:nonzero;stroke:#7bbc6e;stroke-width:30;stroke-linejoin:round;stroke-miterlimit:4;stroke-opacity:1;stroke-dasharray:none"
       id="rect2996-4"
       width="2018"
       height="401.27768"
       x="1880.6447"
       y="-867.39355" />
    <path
       sodipodi:type="arc"
       style="fill:#80a866;fill-opacity:0.50526315;fill-rule:nonzero;stroke:none"
       id="path3012-1-4-3"
       sodipodi:cx="228.57143"
       sodipodi:cy="270.85715"
       sodipodi:rx="68.571426"
       sodipodi:ry="57.142857"
       d="M 297.14285,270.85715 C 297.14285,302.41628 266.44238,328 228.57143,328 190.70047,328 160,302.41628 160,270.85715 c 0,-31.55913 30.70047,-57.14286 68.57143,-57.14286 37.87095,0 68.57142,25.58373 68.57142,57.14286 z"
       transform="matrix(0.83333331,0,0,0.39999999,3467.1684,-811.30783)" />
    <path
       sodipodi:type="arc"
       style="fill:#80a866;fill-opacity:0.43157893;fill-rule:nonzero;stroke:none"
       id="path3012-1-8-4"
       sodipodi:cx="228.57143"
       sodipodi:cy="270.85715"
       sodipodi:rx="68.571426"
       sodipodi:ry="57.142857"
       d="M 297.14285,270.85715 C 297.14285,302.41628 266.44238,328 228.57143,328 190.70047,328 160,302.41628 160,270.85715 c 0,-31.55913 30.70047,-57.14286 68.57143,-57.14286 37.87095,0 68.57142,25.58373 68.57142,57.14286 z"
       transform="matrix(3.7083334,0,0,0.39999999,1410.0255,-794.16497)" />
    <path
       sodipodi:type="arc"
       style="fill:#80a866;fill-opacity:1;fill-rule:nonzero;stroke:none"
       id="path3012-1-8"
       sodipodi:cx="228.57143"
       sodipodi:cy="270.85715"
       sodipodi:rx="68.571426"
       sodipodi:ry="57.142857"
       d="M 297.14285,270.85715 C 297.14285,302.41628 266.44238,328 228.57143,328 190.70047,328 160,302.41628 160,270.85715 c 0,-31.55913 30.70047,-57.14286 68.57143,-57.14286 37.87095,0 68.57142,25.58373 68.57142,57.14286 z"
       transform="matrix(3.7083334,0,0,0.39999999,1432.8827,-822.73636)" />
    <path
       sodipodi:type="arc"
       style="fill:#80a866;fill-opacity:1;fill-rule:nonzero;stroke:none"
       id="path3012-1-4"
       sodipodi:cx="228.57143"
       sodipodi:cy="270.85715"
       sodipodi:rx="68.571426"
       sodipodi:ry="57.142857"
       d="M 297.14285,270.85715 C 297.14285,302.41628 266.44238,328 228.57143,328 190.70047,328 160,302.41628 160,270.85715 c 0,-31.55913 30.70047,-57.14286 68.57143,-57.14286 37.87095,0 68.57142,25.58373 68.57142,57.14286 z"
       transform="matrix(0.83333331,0,0,0.39999999,3487.1684,-839.87926)" />
    <path
       sodipodi:type="arc"
       style="fill:#80a866;fill-opacity:1;fill-rule:nonzero;stroke:none"
       id="path3012-1-5"
       sodipodi:cx="228.57143"
       sodipodi:cy="270.85715"
       sodipodi:rx="68.571426"
       sodipodi:ry="57.142857"
       d="M 297.14285,270.85715 C 297.14285,302.41628 266.44238,328 228.57143,328 190.70047,328 160,302.41628 160,270.85715 c 0,-31.55913 30.70047,-57.14286 68.57143,-57.14286 37.87095,0 68.57142,25.58373 68.57142,57.14286 z"
       transform="matrix(1.0416666,0,0,0.39999999,59.549376,371.54931)" />
    <path
       sodipodi:type="arc"
       style="fill:#80a866;fill-opacity:1;fill-rule:nonzero;stroke:none"
       id="path3012-1-51"
       sodipodi:cx="228.57143"
       sodipodi:cy="270.85715"
       sodipodi:rx="68.571426"
       sodipodi:ry="57.142857"
       d="M 297.14285,270.85715 C 297.14285,302.41628 266.44238,328 228.57143,328 190.70047,328 160,302.41628 160,270.85715 c 0,-31.55913 30.70047,-57.14286 68.57143,-57.14286 37.87095,0 68.57142,25.58373 68.57142,57.14286 z"
       transform="matrix(0.37499997,0,0,3.5,720.50176,-336.67929)" />
    <path
       style="fill:none;stroke:#d48751;stroke-width:50;stroke-linecap:round;stroke-linejoin:round;stroke-miterlimit:4;stroke-opacity:1;stroke-dasharray:none;stroke-dashoffset:0"
       d="m 834.78744,-1205.8221 c 316.33116,-206.1363 530.88316,-106.9353 742.85716,0 234.3396,100.0129 493.97,142.2182 834.2857,0 368.2411,-175.5105 677.2842,-143.8281 954.2857,0 223.7705,126.8148 471.704,161.8105 771.4286,0"
       id="path3918"
       inkscape:connector-curvature="0"
       sodipodi:nodetypes="ccccc" />
    <path
       style="fill:none;stroke:#d48751;stroke-width:15.00000095;stroke-linecap:round;stroke-linejoin:round;stroke-miterlimit:4;stroke-opacity:1;stroke-dasharray:none;stroke-dashoffset:0"
       d="m 1889.3605,-248.75271 c 191.2018,-67.16049 320.8848,-34.84019 449.0093,0 141.6435,32.58483 298.5733,46.33555 504.2723,0 222.5782,-57.18241 409.3749,-46.8601 576.8046,0 135.2549,41.31704 285.1148,52.71885 466.2791,0"
       id="path3918-7-1"
       inkscape:connector-curvature="0"
       sodipodi:nodetypes="ccccc" />
    <rect
       style="fill:#aade87;fill-opacity:1;fill-rule:nonzero;stroke:none"
       id="rect2996-4-1"
       width="1984.5511"
       height="89.849106"
       x="1896.3792"
       y="-540.7467" />
    <path
       style="fill:#000000;fill-opacity:0.2842105;fill-rule:nonzero;stroke:none"
       d="m 1865.6447,-551.81531 0,141.42135 168.3569,40.4061 123.1879,-60.60915 90.3378,68.69037 143.7194,12.12183 82.1253,-80.8122 98.5504,68.69037 192.9944,0 69.8066,-76.77159 131.4004,72.73098 299.7575,24.24366 151.9317,-40.4061 c 0,0 172.4632,24.24366 197.1008,28.28427 24.6376,4.04061 180.6757,-12.12183 180.6757,-12.12183 l 118.0552,-57.07362 -10e-5,-127.27922 z"
       id="path4064-1"
       inkscape:connector-curvature="0"
       sodipodi:nodetypes="cccccccccccccscccc" />
    <path
       style="fill:#aade87;fill-opacity:1;fill-rule:nonzero;stroke:#7bbc6e;stroke-width:30;stroke-miterlimit:4;stroke-opacity:1;stroke-dasharray:none"
       d="m 2064.7518,282.25336 0,141.42135 165.665,40.4061 121.2183,-60.60915 88.8934,68.69037 141.4214,12.12183 80.8122,-80.8122 96.9747,68.69037 189.9086,0 68.6904,-76.77159 129.2995,72.73098 294.9646,24.24366 149.5025,-40.4061 c 0,0 169.7057,24.24366 193.9493,28.28427 24.2437,4.04061 177.7869,-12.12183 177.7869,-12.12183 l 116.1676,-57.07362 -10e-5,-127.27922 z"
       id="path4064"
       inkscape:connector-curvature="0"
       transform="translate(-182.35539,-882.39355)"
       sodipodi:nodetypes="cccccccccccccscccc" />
    <path
       sodipodi:type="arc"
       style="fill:#80a866;fill-opacity:0.46842104;fill-rule:nonzero;stroke:none"
       id="path3012-1-2-2"
       sodipodi:cx="228.57143"
       sodipodi:cy="270.85715"
       sodipodi:rx="68.571426"
       sodipodi:ry="57.142857"
       d="M 297.14285,270.85715 C 297.14285,302.41628 266.44238,328 228.57143,328 190.70047,328 160,302.41628 160,270.85715 c 0,-31.55913 30.70047,-57.14286 68.57143,-57.14286 37.87095,0 68.57142,25.58373 68.57142,57.14286 z"
       transform="matrix(3.7083334,0,0,0.39999999,2392.8826,-631.30783)" />
    <path
       sodipodi:type="arc"
       style="fill:#80a866;fill-opacity:1;fill-rule:nonzero;stroke:none"
       id="path3012-1-2"
       sodipodi:cx="228.57143"
       sodipodi:cy="270.85715"
       sodipodi:rx="68.571426"
       sodipodi:ry="57.142857"
       d="M 297.14285,270.85715 C 297.14285,302.41628 266.44238,328 228.57143,328 190.70047,328 160,302.41628 160,270.85715 c 0,-31.55913 30.70047,-57.14286 68.57143,-57.14286 37.87095,0 68.57142,25.58373 68.57142,57.14286 z"
       transform="matrix(3.7083334,0,0,0.39999999,2404.2619,-656.41297)" />
    <rect
       style="fill:#aade87;fill-opacity:1;fill-rule:nonzero;stroke:none"
       id="rect4066"
       width="1987.4751"
       height="92.934036"
       x="1896.0334"
       y="-656.70874" />
    <path
       sodipodi:type="arc"
       style="fill:#80a866;fill-opacity:0.47894737;fill-rule:nonzero;stroke:none"
       id="path3012-2"
       sodipodi:cx="228.57143"
       sodipodi:cy="270.85715"
       sodipodi:rx="68.571426"
       sodipodi:ry="57.142857"
       d="M 297.14285,270.85715 C 297.14285,302.41628 266.44238,328 228.57143,328 190.70047,328 160,302.41628 160,270.85715 c 0,-31.55913 30.70047,-57.14286 68.57143,-57.14286 37.87095,0 68.57142,25.58373 68.57142,57.14286 z"
       transform="matrix(3.7083334,0,0,0.39999999,-654.1977,-837.78258)" />
    <path
       sodipodi:type="arc"
       style="fill:#80a866;fill-opacity:0.48947367;fill-rule:nonzero;stroke:none"
       id="path3012-1-21"
       sodipodi:cx="228.57143"
       sodipodi:cy="270.85715"
       sodipodi:rx="68.571426"
       sodipodi:ry="57.142857"
       d="M 297.14285,270.85715 C 297.14285,302.41628 266.44238,328 228.57143,328 190.70047,328 160,302.41628 160,270.85715 c 0,-31.55913 30.70047,-57.14286 68.57143,-57.14286 37.87095,0 68.57142,25.58373 68.57142,57.14286 z"
       transform="matrix(3.7083334,0,0,0.39999999,525.66048,-494.33071)" />
    <path
       sodipodi:type="arc"
       style="fill:#80a866;fill-opacity:0.39473686;fill-rule:nonzero;stroke:none"
       id="path3012-4-6"
       sodipodi:cx="228.57143"
       sodipodi:cy="270.85715"
       sodipodi:rx="68.571426"
       sodipodi:ry="57.142857"
       d="M 297.14285,270.85715 C 297.14285,302.41628 266.44238,328 228.57143,328 190.70047,328 160,302.41628 160,270.85715 c 0,-31.55913 30.70047,-57.14286 68.57143,-57.14286 37.87095,0 68.57142,25.58373 68.57142,57.14286 z"
       transform="matrix(3.7083334,0,0,0.39999999,-500.65452,-82.188476)" />
    <path
       sodipodi:type="arc"
       style="fill:#80a866;fill-opacity:0.43157893;fill-rule:nonzero;stroke:none"
       id="path3012-9-8"
       sodipodi:cx="228.57143"
       sodipodi:cy="270.85715"
       sodipodi:rx="68.571426"
       sodipodi:ry="57.142857"
       d="M 297.14285,270.85715 C 297.14285,302.41628 266.44238,328 228.57143,328 190.70047,328 160,302.41628 160,270.85715 c 0,-31.55913 30.70047,-57.14286 68.57143,-57.14286 37.87095,0 68.57142,25.58373 68.57142,57.14286 z"
       transform="matrix(3.7083334,0,0,0.39999999,485.25438,136.00448)" />
    <path
       sodipodi:type="arc"
       style="fill:#80a866;fill-opacity:0.43684211;fill-rule:nonzero;stroke:none"
       id="path3012-0-5"
       sodipodi:cx="228.57143"
       sodipodi:cy="270.85715"
       sodipodi:rx="68.571426"
       sodipodi:ry="57.142857"
       d="M 297.14285,270.85715 C 297.14285,302.41628 266.44238,328 228.57143,328 190.70047,328 160,302.41628 160,270.85715 c 0,-31.55913 30.70047,-57.14286 68.57143,-57.14286 37.87095,0 68.57142,25.58373 68.57142,57.14286 z"
       transform="matrix(3.7083334,0,0,0.39999999,642.83821,628.95891)" />
    <path
       sodipodi:type="arc"
       style="fill:#80a866;fill-opacity:0.38421053;fill-rule:nonzero;stroke:none"
       id="path3012-1-51-7"
       sodipodi:cx="228.57143"
       sodipodi:cy="270.85715"
       sodipodi:rx="68.571426"
       sodipodi:ry="57.142857"
       d="M 297.14285,270.85715 C 297.14285,302.41628 266.44238,328 228.57143,328 190.70047,328 160,302.41628 160,270.85715 c 0,-31.55913 30.70047,-57.14286 68.57143,-57.14286 37.87095,0 68.57142,25.58373 68.57142,57.14286 z"
       transform="matrix(0.37499997,0,0,3.5,742.08287,-315.75411)" />
    <path
       sodipodi:type="arc"
       style="fill:#80a866;fill-opacity:0.39473686;fill-rule:nonzero;stroke:none"
       id="path3012-7-6"
       sodipodi:cx="228.57143"
       sodipodi:cy="270.85715"
       sodipodi:rx="68.571426"
       sodipodi:ry="57.142857"
       d="M 297.14285,270.85715 C 297.14285,302.41628 266.44238,328 228.57143,328 190.70047,328 160,302.41628 160,270.85715 c 0,-31.55913 30.70047,-57.14286 68.57143,-57.14286 37.87095,0 68.57142,25.58373 68.57142,57.14286 z"
       transform="matrix(3.7083334,0,0,0.39999999,-597.62916,911.80163)" />
    <path
       sodipodi:type="arc"
       style="fill:#80a866;fill-opacity:0.40000001;fill-rule:nonzero;stroke:none"
       id="path3012-1-5-1"
       sodipodi:cx="228.57143"
       sodipodi:cy="270.85715"
       sodipodi:rx="68.571426"
       sodipodi:ry="57.142857"
       d="M 297.14285,270.85715 C 297.14285,302.41628 266.44238,328 228.57143,328 190.70047,328 160,302.41628 160,270.85715 c 0,-31.55913 30.70047,-57.14286 68.57143,-57.14286 37.87095,0 68.57142,25.58373 68.57142,57.14286 z"
       transform="matrix(1.0416666,0,0,0.39999999,80.585056,382.4817)" />
  </g>
</svg>
