<?xml version="1.0" encoding="UTF-8" standalone="no"?>
<!-- Created with Inkscape (http://www.inkscape.org/) -->

<svg
   xmlns:dc="http://purl.org/dc/elements/1.1/"
   xmlns:cc="http://creativecommons.org/ns#"
   xmlns:rdf="http://www.w3.org/1999/02/22-rdf-syntax-ns#"
   xmlns:svg="http://www.w3.org/2000/svg"
   xmlns="http://www.w3.org/2000/svg"
   xmlns:sodipodi="http://sodipodi.sourceforge.net/DTD/sodipodi-0.dtd"
   xmlns:inkscape="http://www.inkscape.org/namespaces/inkscape"
   width="4096"
   height="2048"
   id="svg2"
   version="1.1"
   inkscape:version="0.48.4 r9939"
   sodipodi:docname="02world.svg"
   inkscape:export-filename="C:\Users\Pedro\Desktop\makemake\pedro\dibujo.png"
   inkscape:export-xdpi="90"
   inkscape:export-ydpi="90">
  <defs
     id="defs4" />
  <sodipodi:namedview
     id="base"
     pagecolor="#ffffff"
     bordercolor="#666666"
     borderopacity="1.0"
     inkscape:pageopacity="0.0"
     inkscape:pageshadow="2"
     inkscape:zoom="0.12374369"
     inkscape:cx="1079.2971"
     inkscape:cy="1527.3827"
     inkscape:document-units="px"
     inkscape:current-layer="layer1"
     showgrid="false"
     fit-margin-top="0"
     fit-margin-left="0"
     fit-margin-right="0"
     fit-margin-bottom="0"
     inkscape:window-width="1366"
     inkscape:window-height="716"
     inkscape:window-x="-8"
     inkscape:window-y="-8"
     inkscape:window-maximized="1" />
  <metadata
     id="metadata7">
    <rdf:RDF>
      <cc:Work
         rdf:about="">
        <dc:format>image/svg+xml</dc:format>
        <dc:type
           rdf:resource="http://purl.org/dc/dcmitype/StillImage" />
        <dc:title />
      </cc:Work>
    </rdf:RDF>
  </metadata>
  <g
     inkscape:label="Capa 1"
     inkscape:groupmode="layer"
     id="layer1"
     transform="translate(182.35539,882.39355)">
    <rect
       style="fill:#be6a31;fill-opacity:1;fill-rule:nonzero;stroke:#583015;stroke-width:30;stroke-linejoin:round;stroke-miterlimit:4;stroke-opacity:1;stroke-dasharray:none"
       id="rect2996"
       width="2018"
       height="2018"
       x="-167.35539"
       y="-867.39355" />
    <path
       inkscape:connector-curvature="0"
       style="color:#000000;fill:#000000;fill-opacity:0.1923077;fill-rule:nonzero;stroke:none;stroke-width:3;marker:none;visibility:visible;display:inline;overflow:visible;enable-background:accumulate"
       d="m 114.78747,733.12871 c -41.02687,0 -74.28125,30.69164 -74.28125,68.56264 0,20.1793 9.4393,38.3584 24.46875,50.9062 -0.12632,1.2267 -0.1875,2.4615 -0.1875,3.7188 0,21.4844 18.85014,38.9062 42.125,38.9062 20.87873,0 38.21504,-14.0118 41.5625,-32.4062 24.08595,-11.3397 40.59375,-34.4552 40.59375,-61.125 0,-37.871 -33.25438,-68.56264 -74.28125,-68.56264 z"
       id="path3891-1" />
    <rect
       style="fill:#5d3200;fill-opacity:1;fill-rule:nonzero;stroke:#3d1a00;stroke-width:25;stroke-linejoin:round;stroke-miterlimit:4;stroke-opacity:1;stroke-dasharray:none"
       id="rect2996-4-8"
       width="2023"
       height="472.57288"
       x="1878.1447"
       y="-675.64008" />
    <path
       style="color:#000000;fill:#000000;fill-opacity:0.25961537;stroke:none;stroke-width:5;marker:none;visibility:visible;display:inline;overflow:visible;enable-background:accumulate"
       d="M 2993.236,666.82395 3050,572.28569 3048.5715,507.99998 2990,373.71426 l 65.7143,127.14286 27.1429,-10 11.4286,-30 35.7142,-100 -37.1428,140 -31.4286,11.42857 1.4286,57.14286 0,42.85714 -22.8572,15.71429 59.1161,38.91063 z"
       id="path4065"
       inkscape:connector-curvature="0"
       transform="translate(-182.35539,-882.39355)"
       sodipodi:nodetypes="ccccccccccccccc" />
    <path
       style="fill:#000000;fill-opacity:0.37980766;fill-rule:nonzero;stroke:none"
       d="m 1890.8392,-540.73147 0,141.42135 c 72.1468,46.69393 62.87,109.62403 78.0099,167.68532 42.134,-117.88187 17.5882,-219.43787 147.308,-293.08781 100.6178,-14.7039 75.755,92.9112 146.7294,173.88981 41.3217,84.97553 74.6709,-68.65845 137.1892,-39.30674 57.2803,94.30225 103.3132,92.91246 108.298,22.04494 64.0048,-121.08145 71.4583,-131.33826 90.3547,-17.02391 48.9393,97.11152 82.1186,199.93368 168.2224,34.28571 l 68.0087,-76.77159 c 65.6055,-59.14408 99.6992,-3.70844 128.0163,72.73098 111.3272,177.54168 203.0287,117.21169 292.0373,24.24366 93.1704,-102.00911 129.8223,-89.84812 148.0188,-40.4061 -6.9952,94.9132 148.4079,131.664 192.0244,28.28427 40.1673,-95.20385 132.6128,-52.86262 176.0225,-12.12183 122.1142,76.16804 108.3863,-2.01804 115.0148,-57.07362 l -1e-4,-127.27922 c -661.4089,-21.13117 -1273.669,-318.04866 -1995.2543,-1.51522 z"
       id="path4064-17"
       inkscape:connector-curvature="0"
       sodipodi:nodetypes="cccccccccccccscccc" />
    <path
       style="color:#000000;fill:#000000;fill-opacity:0.25961537;fill-rule:nonzero;stroke:none;stroke-width:5;marker:none;visibility:visible;display:inline;overflow:visible;enable-background:accumulate"
       d="m 2346.7376,666.76431 -90.0568,-123.89162 12.1218,-64.64977 -92.934,-189.90868 86.8731,143.44167 40.4061,-48.48733 -28.2842,50.50763 94.9543,8.08122 48.4873,84.85282 56.5686,-163.64472 -44.4467,185.86807 -50.5077,-68.69037 -22.2233,-24.24366 -62.6295,8.08122 -24.2436,-18.18275 10.1015,26.26397 22.2233,26.26397 -30.3045,4.04061 4.0406,40.4061 166.4659,123.92226 z"
       id="path4067"
       inkscape:connector-curvature="0"
       transform="translate(-182.35539,-882.39355)"
       sodipodi:nodetypes="ccccccccccccccccccccc" />
    <path
       style="fill:#be6a31;fill-opacity:1;fill-rule:nonzero;stroke:#583015;stroke-width:30;stroke-linejoin:round;stroke-miterlimit:4;stroke-opacity:1"
       d="m 1880.6447,-867.39355 2018,0 0,401.27767 c -656.5136,-138.03493 -1283.5016,-528.38033 -2018,0 z"
       id="rect2996-4"
       inkscape:connector-curvature="0"
       sodipodi:nodetypes="ccccc" />
    <path
       style="color:#000000;fill:#000000;fill-opacity:0.25961537;fill-rule:nonzero;stroke:none;stroke-width:5;marker:none;visibility:visible;display:inline;overflow:visible;enable-background:accumulate"
       d="m 3385.8618,666.88532 48.6569,-41.18012 101.0153,8.08122 141.4213,-28.28427 133.3401,44.44671 101.0153,-76.77159 72.731,-4.04061 -64.6498,-12.12184 -48.4873,-52.52793 24.2437,56.56854 -64.6498,64.64977 -24.2437,-262.63967 8.0813,246.47723 -32.3249,-16.16244 35.1317,31.76252 -10,14.28571 -51.4286,-41.42857 18.5715,28.57143 -77.1429,-52.85715 -28.5714,27.14286 -67.1429,8.57143 -65.7143,14.28572 -112.8571,-22.85715 -10,27.14286 -104.4643,38.92858 z"
       id="path4069"
       inkscape:connector-curvature="0"
       transform="translate(-182.35539,-882.39355)"
       sodipodi:nodetypes="cccccccccccccccccccccccccc" />
    <path
       style="fill:none;stroke:#d48751;stroke-width:50;stroke-linecap:round;stroke-linejoin:round;stroke-miterlimit:4;stroke-opacity:1;stroke-dasharray:none;stroke-dashoffset:0"
       d="m 899.4372,-2005.8629 c 316.3312,-206.1363 530.8832,-106.9353 742.8572,0 234.3396,100.0129 493.97,142.2182 834.2857,0 368.2411,-175.5105 677.2842,-143.8281 954.2857,0 223.7705,126.8148 471.704,161.8105 771.4286,0"
       id="path3918"
       inkscape:connector-curvature="0"
       sodipodi:nodetypes="ccccc" />
    <path
       style="fill:#000000;fill-opacity:0.2842105;fill-rule:nonzero;stroke:none"
       d="m 4896.1024,668.44898 0,141.42135 168.3569,40.4061 123.1879,-60.60915 90.3378,68.69037 143.7194,12.12183 82.1253,-80.8122 98.5504,68.69037 192.9944,0 69.8066,-76.77159 131.4004,72.73098 299.7575,24.24366 151.9317,-40.4061 c 0,0 172.4632,24.24366 197.1008,28.28427 24.6376,4.04061 180.6757,-12.12183 180.6757,-12.12183 l 118.0552,-57.07362 -1e-4,-127.27922 z"
       id="path4064-1"
       inkscape:connector-curvature="0"
       sodipodi:nodetypes="cccccccccccccscccc" />
    <path
       style="fill:#be6a31;fill-opacity:1;fill-rule:nonzero;stroke:#583015;stroke-width:30;stroke-linecap:round;stroke-linejoin:round;stroke-miterlimit:4;stroke-opacity:1;stroke-dasharray:none"
       d="m 2064.7518,282.25336 0,141.42135 c 72.87,46.69393 63.5002,109.62403 78.7919,167.68532 42.5563,-117.88187 17.7644,-219.43787 148.7846,-293.08781 101.6263,-14.7039 76.5143,92.9112 148.2002,173.88981 41.7359,84.97553 75.4194,-68.65845 138.5643,-39.30674 57.8545,94.30225 104.3488,92.91246 109.3836,22.04494 64.6463,-121.08145 72.1745,-131.33826 91.2604,-17.02391 49.4298,97.11152 82.9417,199.93368 169.9086,34.28571 l 68.6904,-76.77159 c 66.2631,-59.14408 100.6985,-3.70844 129.2995,72.73098 112.4432,177.54168 205.0638,117.21169 294.9646,24.24366 94.1044,-102.00911 131.1237,-89.84812 149.5025,-40.4061 -7.0653,94.9132 149.8955,131.664 193.9493,28.28427 40.5698,-95.20385 133.9421,-52.86262 177.7869,-12.12183 123.3382,76.16804 109.4727,-2.01804 116.1676,-57.07362 l -10e-5,-127.27922 C 3411.9674,262.63741 2793.5702,-34.280092 2064.7518,282.25336 z"
       id="path4064"
       inkscape:connector-curvature="0"
       transform="translate(-182.35539,-882.39355)"
       sodipodi:nodetypes="cccccccccccccscccc" />
    <rect
       style="fill:#be6a31;fill-opacity:1;fill-rule:nonzero;stroke:none"
       id="rect4066"
       width="1987.4751"
       height="92.934036"
       x="1870.3192"
       y="-1042.423" />
    <path
       style="color:#000000;fill:#be6a31;fill-opacity:1;fill-rule:nonzero;stroke:none;stroke-width:3;marker:none;visibility:visible;display:inline;overflow:visible;enable-background:accumulate"
       d="m 2077.8572,251.5714 2.8571,66.42857 496.4286,-115.71428 1488.5714,132.85714 -1.4285,-110 L 2605.7143,65.142831 2097.1429,196.5714 z"
       id="path3791"
       inkscape:connector-curvature="0"
       transform="translate(-182.35539,-882.39355)"
       sodipodi:nodetypes="cccccccc" />
    <path
       style="fill:#000000;fill-opacity:0.35096154;fill-rule:nonzero;stroke:none"
       d="m 1895.7319,-730.28521 0,141.42135 c 72.1489,46.69393 168.5359,-15.17183 168.5359,-15.17183 57.0649,-41.19815 102.4291,-68.31003 152.9699,-50.23066 42.2387,15.10955 12.7625,24.60138 73.183,113.88981 52.8906,78.16082 74.6731,-68.65845 137.1931,-39.30674 57.2819,94.30225 103.3161,92.91246 108.3011,22.04494 64.0065,-121.08145 71.4602,-131.33826 90.3572,-17.02391 48.9407,97.11152 82.1209,199.93369 168.2272,34.28571 l 68.0106,-76.77159 c 65.6073,-59.14408 184.568,-12.27987 212.886,64.15955 111.3303,177.54169 252.4413,41.38652 252.4413,41.38652 0,0 98.7085,-146.99098 102.7611,-48.97753 46.9232,203.82818 110.8886,-63.36532 192.0299,28.28427 82.1981,92.84333 154.1086,27.4527 176.0275,-12.12183 122.1176,76.16804 85.7584,-2.01804 92.387,-57.07362 l 5.6576,-127.27922 z"
       id="path4064-4-0"
       inkscape:connector-curvature="0"
       sodipodi:nodetypes="cccasccccccccscccc" />
    <path
       style="fill:#be6a31;fill-opacity:1;fill-rule:nonzero;stroke:#583015;stroke-width:30;stroke-linecap:round;stroke-linejoin:round;stroke-miterlimit:4;stroke-opacity:1;stroke-dasharray:none"
       d="m 1878.589,-799.26333 0,141.42135 c 72.87,46.69393 170.2204,-15.17183 170.2204,-15.17183 57.6353,-41.19815 103.4529,-68.31003 154.4989,-50.23066 42.6609,15.10955 12.8901,24.60138 73.9145,113.88981 53.4192,78.16082 75.4194,-68.65845 138.5643,-39.30674 57.8545,94.30225 104.3488,92.91246 109.3836,22.04494 64.6463,-121.08145 72.1745,-131.33826 91.2604,-17.02391 49.4298,97.11152 82.9417,199.93369 169.9086,34.28571 l 68.6904,-76.77159 c 66.2631,-59.14408 186.4128,-12.27987 215.0138,64.15955 112.4431,177.54169 254.9645,41.38652 254.9645,41.38652 0,0 99.6951,-146.99098 103.7882,-48.97753 47.3922,203.82818 111.997,-63.36532 193.9493,28.28427 83.0197,92.84333 155.6489,27.4527 177.7869,-12.12183 123.3382,76.16804 86.6156,-2.01804 93.3105,-57.07362 l 5.7141,-127.27922 c -673.6561,-25.53961 -1347.3123,-76.96622 -2020.9684,-1.51522 z"
       id="path4064-4"
       inkscape:connector-curvature="0"
       sodipodi:nodetypes="cccasccccccccscccc" />
    <path
       style="fill:#000000;fill-opacity:0.35096154;fill-rule:nonzero;stroke:none"
       d="m 1890.6208,-825.11251 0,63.17099 c 85.1324,20.85754 198.8646,17.46661 198.8646,17.46661 110.0563,-54.97123 149.6733,14.93344 178.1373,38.1718 23.4431,19.13923 17.4195,-73.86371 88.7129,-33.97979 62.4084,34.91337 83.3902,62.26525 157.1609,75.37626 47.4405,-19.96661 115.9484,-84.34301 132.5109,-83.08687 22.1837,-32.55404 84.3198,-58.66701 106.6175,-7.60435 121.1869,242.48385 100.4571,100.47518 198.5003,15.31496 26.7498,-11.43094 70.7189,183.48589 80.2494,-34.29282 86.295,110.41588 227.1321,65.93536 251.1957,28.65919 72.7317,88.45213 262.465,62.93351 262.465,62.93351 45.8364,-7.84684 146.9467,-106.94045 156.6576,-66.32431 225.9356,56.52691 215.5835,64.67556 203.4236,-30.39629 l -5.1258,-44.73206 c -669.7899,-0.22561 -1571.5375,-0.45122 -2009.3699,-0.67683 z"
       id="path4064-4-9-4"
       inkscape:connector-curvature="0"
       sodipodi:nodetypes="cccssccccccccccc" />
    <path
       style="fill:#be6a31;fill-opacity:1;fill-rule:nonzero;stroke:#583015;stroke-width:30;stroke-linecap:round;stroke-linejoin:round;stroke-miterlimit:4;stroke-opacity:1;stroke-dasharray:none"
       d="m 1882.0647,-868.18853 0,63.17099 c 85.1324,20.85754 198.8646,17.46661 198.8646,17.46661 110.0563,-54.97123 149.6733,14.93344 178.1373,38.1718 23.4431,19.13923 17.4195,-73.86371 88.7129,-33.97979 62.4084,34.91337 83.3902,62.26525 157.1609,75.37626 47.4405,-19.96661 115.9484,-84.34301 132.5109,-83.08687 22.1837,-32.55404 84.3198,-58.66701 106.6175,-7.60435 121.1869,242.48385 100.4571,100.47518 198.5003,15.31496 26.7498,-11.43094 70.7189,183.48589 80.2494,-34.29282 86.295,110.41588 227.1321,65.93536 251.1957,28.65919 72.7317,88.45213 262.465,62.93351 262.465,62.93351 45.8364,-7.84684 146.9467,-106.94045 156.6576,-66.32431 225.9356,56.52691 215.5835,64.67556 203.4236,-30.39629 l -5.1258,-44.73206 c -669.7899,-0.22561 -1571.5375,-0.45122 -2009.3699,-0.67683 z"
       id="path4064-4-9"
       inkscape:connector-curvature="0"
       sodipodi:nodetypes="cccssccccccccccc" />
    <path
       style="color:#000000;fill:#7c4520;fill-opacity:1;fill-rule:nonzero;stroke:none;stroke-width:3;marker:none;visibility:visible;display:inline;overflow:visible;enable-background:accumulate"
       d="M 285.71875 1602.2812 C 244.69188 1602.2812 211.4375 1632.9728 211.4375 1670.8438 C 211.4375 1691.0231 220.8768 1709.2022 235.90625 1721.75 C 235.77993 1722.9767 235.71875 1724.2115 235.71875 1725.4688 C 235.71875 1746.9532 254.56889 1764.375 277.84375 1764.375 C 298.72248 1764.375 316.05879 1750.3632 319.40625 1731.9688 C 343.4922 1720.6291 360 1697.5136 360 1670.8438 C 360 1632.9728 326.74562 1602.2812 285.71875 1602.2812 z "
       transform="translate(-182.35539,-882.39355)"
       id="path3891" />
    <path
       sodipodi:type="arc"
       style="color:#000000;fill:#000000;fill-opacity:0.1923077;fill-rule:nonzero;stroke:none;stroke-width:3;marker:none;visibility:visible;display:inline;overflow:visible;enable-background:accumulate"
       id="path3891-8-1"
       sodipodi:cx="740"
       sodipodi:cy="1613.7142"
       sodipodi:rx="185.71429"
       sodipodi:ry="171.42857"
       d="m 925.71429,1613.7142 a 185.71429,171.42857 0 1 1 -371.42858,0 185.71429,171.42857 0 1 1 371.42858,0 z"
       transform="matrix(0.20416667,0,0,0.20416667,-35.52652,335.80942)" />
    <path
       sodipodi:type="arc"
       style="color:#000000;fill:#7c4520;fill-opacity:1;fill-rule:nonzero;stroke:none;stroke-width:3;marker:none;visibility:visible;display:inline;overflow:visible;enable-background:accumulate"
       id="path3891-8"
       sodipodi:cx="740"
       sodipodi:cy="1613.7142"
       sodipodi:rx="185.71429"
       sodipodi:ry="171.42857"
       d="m 925.71429,1613.7142 a 185.71429,171.42857 0 1 1 -371.42858,0 185.71429,171.42857 0 1 1 371.42858,0 z"
       transform="matrix(0.20416667,0,0,0.20416667,-46.950633,322.56836)" />
    <path
       transform="translate(-176.64111,-865.2507)"
       sodipodi:type="arc"
       style="color:#000000;fill:#000000;fill-opacity:0.12980772;fill-rule:nonzero;stroke:none;stroke-width:3;marker:none;visibility:visible;display:inline;overflow:visible;enable-background:accumulate"
       id="path3919-5"
       sodipodi:cx="245.71429"
       sodipodi:cy="453.71426"
       sodipodi:rx="108.57143"
       sodipodi:ry="80"
       d="m 354.28572,453.71426 a 108.57143,80 0 1 1 -217.14285,0 108.57143,80 0 1 1 217.14285,0 z" />
    <path
       sodipodi:type="arc"
       style="color:#000000;fill:#7c4520;fill-opacity:1;fill-rule:nonzero;stroke:none;stroke-width:3;marker:none;visibility:visible;display:inline;overflow:visible;enable-background:accumulate"
       id="path3919"
       sodipodi:cx="245.71429"
       sodipodi:cy="453.71426"
       sodipodi:rx="108.57143"
       sodipodi:ry="80"
       d="m 354.28572,453.71426 a 108.57143,80 0 1 1 -217.14285,0 108.57143,80 0 1 1 217.14285,0 z"
       transform="translate(-182.35539,-882.39355)" />
    <path
       inkscape:connector-curvature="0"
       style="color:#000000;fill:#000000;fill-opacity:0.13461537;fill-rule:nonzero;stroke:none;stroke-width:3;marker:none;visibility:visible;display:inline;overflow:visible;enable-background:accumulate"
       d="m 921.07288,62.12394 c -36.2929,0 -65.7187,37.11426 -65.7187,82.87505 0,23.1576 7.5406,44.0899 19.6875,59.125 -19.0678,18.327 -31.0938,45.2104 -31.0938,75.1562 0,1.326 0.016,2.6553 0.063,3.9688 -10.594,10.4282 -17.2188,25.2776 -17.2188,41.75 0,31.5591 24.3001,57.125 54.2812,57.125 9.7537,0 18.9019,-2.6973 26.8126,-7.4376 8.6707,2.9837 17.8972,4.5938 27.4687,4.5938 50.4946,0 91.43752,-44.7715 91.43752,-100 0,-39.1183 -20.545,-72.9737 -50.46882,-89.4062 6.6252,-12.9353 10.4688,-28.3315 10.4688,-44.875 0,-45.76079 -29.4258,-82.87505 -65.7188,-82.87505 z"
       id="path3919-4-7" />
    <path
       style="color:#000000;fill:#7c4520;fill-opacity:1;fill-rule:nonzero;stroke:none;stroke-width:3;marker:none;visibility:visible;display:inline;overflow:visible;enable-background:accumulate"
       d="M 1094.2812 930.84375 C 1057.9883 930.84375 1028.5625 967.95801 1028.5625 1013.7188 C 1028.5625 1036.8764 1036.1031 1057.8087 1048.25 1072.8438 C 1029.1822 1091.1708 1017.1562 1118.0542 1017.1562 1148 C 1017.1562 1149.326 1017.172 1150.6553 1017.2188 1151.9688 C 1006.6248 1162.397 1000 1177.2464 1000 1193.7188 C 1000 1225.2779 1024.3001 1250.8438 1054.2812 1250.8438 C 1064.0349 1250.8438 1073.1831 1248.1465 1081.0938 1243.4062 C 1089.7645 1246.3899 1098.991 1248 1108.5625 1248 C 1159.0571 1248 1200 1203.2285 1200 1148 C 1200 1108.8817 1179.455 1075.0263 1149.5312 1058.5938 C 1156.1564 1045.6585 1160 1030.2623 1160 1013.7188 C 1160 967.95801 1130.5742 930.84375 1094.2812 930.84375 z "
       transform="translate(-182.35539,-882.39355)"
       id="path3919-4" />
    <path
       style="color:#000000;fill:#583015;fill-opacity:1;fill-rule:nonzero;stroke:none;stroke-width:3;marker:none;visibility:visible;display:inline;overflow:visible;enable-background:accumulate"
       d="m 2020,630.85712 c -102.3802,-31.47531 -327.8456,267.34355 -225.7143,328.57144 43.6639,26.17656 -3.6923,259.38714 -8.5714,294.28574 -5.6243,40.2286 75.3293,145.3234 111.4286,111.4285 42.4825,-39.8883 99.4307,35.54 125.7143,60"
       id="path3965"
       inkscape:connector-curvature="0"
       transform="translate(-182.35539,-882.39355)"
       sodipodi:nodetypes="csssc" />
    <path
       style="color:#000000;fill:#7f4318;fill-opacity:1;fill-rule:nonzero;stroke:none;stroke-width:3;marker:none;visibility:visible;display:inline;overflow:visible;enable-background:accumulate"
       d="m 1613.1839,2017.7969 c 0,0 100.0348,-26.3654 144.4816,-38.4873 44.4467,-12.1218 101.0152,-52.5279 101.0152,-80.8122 0,-28.2843 -24.2437,-72.731 -44.4467,-72.731 -20.2031,0 -222.2336,-84.8528 -197.9899,-92.934 24.2437,-8.0812 133.3401,40.4061 189.9087,44.4467 56.5685,4.0406 117.1777,-24.2436 149.5026,-36.3655 32.3248,-12.1218 62.976,2.388 62.976,2.388 l 0.4692,274.9855 z"
       id="path4042"
       inkscape:connector-curvature="0"
       transform="translate(-182.35539,-882.39355)"
       sodipodi:nodetypes="cssssssccc" />
    <path
       style="color:#000000;fill:#000000;fill-opacity:0.13461537;fill-rule:nonzero;stroke:none;stroke-width:5;marker:none;visibility:visible;display:inline;overflow:visible;enable-background:accumulate"
       d="m 1310.1679,30.220265 -247.4874,183.342685 153.5432,60.60916 -622.254,64.64976 101.01526,32.32488 -161.62441,113.13709 -105.05587,56.56854 113.13709,-48.48732 -4.04061,56.56854 20.20305,-64.64976 153.54319,-96.97465 153.54319,96.97465 -165.66502,40.4061 177.78685,-28.28427 16.16244,28.28427 72.73099,-105.05586 -72.73099,56.56854 -105.05586,-92.93404 -36.3655,-4.04061 -48.48732,-32.32488 315.16762,-12.12183 36.3655,-24.24366 234.3554,-8.08122 214.1523,193.94929 0,48.48732 16.1624,-56.56854 60.6092,-28.28427 -68.6904,12.12183 -12.1218,-44.44671 0,40.4061 -185.8681,-173.74624 8.0812,-32.32488 -60.6091,24.24366 12.1218,-48.48732 -165.665,-24.24367 173.7462,-125.258912 216.1727,-58.588849 z"
       id="path4071"
       inkscape:connector-curvature="0"
       transform="translate(-182.35539,-882.39355)"
       sodipodi:nodetypes="cccccccccccccccccccccccccccccccccccccc" />
  </g>
</svg>
