<?xml version="1.0" encoding="UTF-8" standalone="no"?>
<!-- Created with Inkscape (http://www.inkscape.org/) -->

<svg
   xmlns:dc="http://purl.org/dc/elements/1.1/"
   xmlns:cc="http://creativecommons.org/ns#"
   xmlns:rdf="http://www.w3.org/1999/02/22-rdf-syntax-ns#"
   xmlns:svg="http://www.w3.org/2000/svg"
   xmlns="http://www.w3.org/2000/svg"
   xmlns:sodipodi="http://sodipodi.sourceforge.net/DTD/sodipodi-0.dtd"
   xmlns:inkscape="http://www.inkscape.org/namespaces/inkscape"
   width="500"
   height="500"
   id="svg2"
   version="1.1"
   inkscape:version="0.48.4 r9939"
   inkscape:export-filename="C:\Users\Pedro\Desktop\lava1.png"
   inkscape:export-xdpi="92.160004"
   inkscape:export-ydpi="92.160004"
   sodipodi:docname="Documento nuevo 1">
  <defs
     id="defs4" />
  <sodipodi:namedview
     id="base"
     pagecolor="#ffffff"
     bordercolor="#666666"
     borderopacity="1.0"
     inkscape:pageopacity="0.0"
     inkscape:pageshadow="2"
     inkscape:zoom="0.49497475"
     inkscape:cx="182.56473"
     inkscape:cy="315.97331"
     inkscape:document-units="px"
     inkscape:current-layer="layer1"
     showgrid="false"
     borderlayer="true"
     inkscape:window-width="1920"
     inkscape:window-height="1028"
     inkscape:window-x="1358"
     inkscape:window-y="-8"
     inkscape:window-maximized="1" />
  <metadata
     id="metadata7">
    <rdf:RDF>
      <cc:Work
         rdf:about="">
        <dc:format>image/svg+xml</dc:format>
        <dc:type
           rdf:resource="http://purl.org/dc/dcmitype/StillImage" />
        <dc:title></dc:title>
      </cc:Work>
    </rdf:RDF>
  </metadata>
  <g
     inkscape:label="Capa 1"
     inkscape:groupmode="layer"
     id="layer1"
     transform="translate(0,-552.36218)">
    <path
       style="color:#000000;fill:#d40000;fill-opacity:1;fill-rule:nonzero;stroke:none;stroke-width:0.5;marker:none;visibility:visible;display:inline;overflow:visible;enable-background:accumulate"
       d="M 45.714293,656.87146 C 157.14286,619.14452 8.5714329,605.8891 297.14286,590.5944 585.71429,575.29969 525.71429,582.43722 740,579.37828 c 214.28571,-3.05894 262.8571,0 248.57143,6.11788 -14.28572,6.11788 -140,20.39294 -208.57143,11.21612 -68.57143,-9.17682 -145.71429,-12.23576 -205.71429,-3.05894 -60,9.17682 -165.71428,31.60906 -220,26.51082 C 300,615.06593 180,597.73193 157.14286,612.00699 c -22.85715,14.27506 -159.9999971,54.0413 -94.28572,61.17883 65.71429,7.13753 85.71429,-45.88413 134.28572,-50.98236 48.57143,-5.09824 111.42857,4.07859 142.85714,4.07859 31.42857,0 148.57143,8.15717 200,-1.01965 51.42857,-9.17682 174.28571,-21.41259 222.85714,-19.3733 48.57143,2.0393 51.42857,20.39295 171.42857,22.43224 119.99999,2.0393 154.28569,2.0393 151.42859,12.23577 -2.8572,10.19647 -68.5714,49.96271 -151.42859,29.56976 -82.85714,-20.39294 -134.28571,-46.90376 -180,-41.80553 -45.71428,5.09824 -77.14285,16.31436 -102.85714,16.31436 -25.71428,0 -74.28571,-10.19648 -180,0 C 365.71429,654.83217 380,664.00899 305.71429,661.9697 231.42857,659.9304 174.28571,650.75358 128.57143,672.16617 82.857143,693.57876 -54.285707,726.20747 -8.5714271,727.22712 37.142863,728.24676 168.57143,694.59841 182.85714,686.44123 c 14.28572,-8.15718 51.42857,-28.55012 105.71429,-17.334 54.28571,11.21612 122.85714,16.31435 171.42857,5.09823 48.57143,-11.21612 60,-19.37329 88.57143,-19.37329 28.57143,0 45.71428,9.17682 151.42857,15.2947 105.71429,6.11789 165.71429,-1.01964 220,15.29471 54.28571,16.31436 142.8571,9.17683 188.5714,1.01965 45.7143,-8.15718 182.8572,-3.05894 88.5715,17.334 -94.2858,20.39294 -405.71433,1.01965 -440.00004,-12.23576 C 722.85714,678.28405 728.57143,675.22511 625.71429,679.3037 522.85714,683.38229 500,698.677 431.42857,695.61805 362.85714,692.55911 334.28571,685.42158 280,686.44123 225.71429,687.46088 177.14286,696.6377 142.85714,706.83417 108.57143,717.03064 -31.428567,744.56112 -14.285707,747.62006 2.8571429,750.679 171.42857,709.89311 171.42857,709.89311 c 0,0 -45.71428,14.27506 62.85714,7.13753 108.57143,-7.13753 80,-17.334 154.28572,-11.21611 74.28571,6.11788 62.85714,15.2947 111.42857,6.11788 48.57143,-9.17683 37.14286,-16.31436 94.28571,-15.29471 57.14286,1.01965 -8.57142,2.0393 134.28572,11.21612 142.85714,9.17682 311.42857,-5.09824 399.99997,12.23577 88.5715,17.334 91.4286,47.92341 -71.4285,40.78588 C 894.28571,753.73794 900,751.69865 785.71429,732.32535 671.42857,712.95206 722.85714,696.6377 614.28571,708.87347 505.71429,721.10923 537.14286,737.42359 428.57143,727.22712 320,717.03064 331.42857,704.79488 240,718.05029 148.57143,731.3057 145.71429,825.11324 -68.571427,754.75759 -282.85714,684.40193 -297.14286,620.16416 -74.285707,592.63369 148.57143,565.10322 245.71429,580.39793 345.71429,579.37828 c 100,-1.01965 194.28571,-1.01965 282.85714,-8.15718 88.57143,-7.13753 180,-25.49118 154.28571,-35.68765 -25.71428,-10.19647 -197.14285,8.15718 -228.57143,17.334 -31.42857,9.17683 -57.14285,21.41259 -137.14285,21.41259 -80,0 -60,-6.11788 -231.42857,-11.21611 C 14.285713,557.96569 -308.57143,549.80851 -360,596.71228 c -51.42857,46.90377 405.714293,60.15918 405.714293,60.15918 z"
       id="path2985"
       inkscape:connector-curvature="0" />
    <path
       style="color:#000000;fill:#d40000;fill-opacity:1;fill-rule:nonzero;stroke:none;stroke-width:0.5;marker:none;visibility:visible;display:inline;overflow:visible;enable-background:accumulate"
       d="m 241.54499,1062.0899 c 111.42857,37.7269 -37.14286,50.9824 251.42857,66.2771 288.57143,15.2947 228.57143,8.1571 442.85717,11.2161 214.28567,3.0589 262.85707,0 248.57137,-6.1179 -14.2857,-6.1179 -140,-20.3929 -208.57137,-11.2161 -68.5715,9.1768 -145.71432,12.2357 -205.71432,3.0589 -60,-9.1768 -165.71428,-31.609 -220,-26.5108 -54.28571,5.0982 -174.28571,22.4322 -197.14285,8.1572 -22.85715,-14.2751 -160,-54.0413 -94.28573,-61.1789 65.71429,-7.1375 85.7143,45.8842 134.28573,50.9824 48.57143,5.0982 111.42857,-4.0786 142.85714,-4.0786 31.42857,0 148.57143,-8.1572 200,1.0197 51.42857,9.1768 174.28573,21.4126 222.85713,19.3733 48.57137,-2.0393 51.42857,-20.393 171.42857,-22.4323 120.0001,-2.0393 154.2858,-2.0393 151.4287,-12.2357 -2.8572,-10.1965 -68.5715,-49.9628 -151.4287,-29.5698 -82.8572,20.3929 -134.28567,46.9038 -179.99997,41.8055 -45.7143,-5.0982 -77.1429,-16.3143 -102.8572,-16.3143 -25.71424,0 -74.28567,10.1964 -179.99996,0 -105.71428,-10.1965 -91.42857,-19.3733 -165.71428,-17.334 -74.28572,2.0393 -131.42858,11.2161 -177.14287,-10.1965 -45.71428,-21.4126 -182.85713,-54.04132 -137.14285,-55.06097 45.71429,-1.01964 177.14286,32.62877 191.42857,40.78587 14.28572,8.1572 51.42857,28.5502 105.71429,17.334 54.28571,-11.2161 122.85714,-16.3143 171.42857,-5.0982 48.57143,11.2161 60,19.3733 88.57143,19.3733 28.57143,0 45.71428,-9.1768 151.4286,-15.2947 105.71427,-6.1179 165.71427,1.0196 219.99997,-15.2947 54.2857,-16.3144 142.8572,-9.1768 188.5715,-1.0197 45.7143,8.1572 182.8572,3.059 88.5715,-17.334 -94.2858,-20.39292 -405.71447,-1.0196 -440.00017,12.2358 -34.2857,13.2554 -28.5714,16.3144 -131.42854,12.2358 -102.85715,-4.0786 -125.71429,-19.3733 -194.28572,-16.3144 -68.57143,3.059 -97.14286,10.1965 -151.42857,9.1768 -54.28571,-1.0196 -102.85714,-10.1964 -137.14286,-20.3929 -34.28572,-10.1965 -174.28571,-37.72697 -157.14285,-40.78591 17.14285,-3.05894 185.71428,37.72701 185.71428,37.72701 0,0 -45.71429,-14.27512 62.85714,-7.1376 108.57143,7.1376 80,17.334 154.28572,11.2161 74.28571,-6.1178 62.85714,-15.29471 111.42857,-6.1178 48.57143,9.1768 37.14286,16.3143 94.28571,15.2947 57.14282,-1.0197 -8.57142,-2.0393 134.28572,-11.2162 142.85707,-9.1768 311.42867,5.0983 400.00007,-12.23571 88.5715,-17.33403 91.4286,-47.92344 -71.4285,-40.78591 -162.8573,7.13753 -157.143,9.17682 -271.42867,28.55012 -114.2858,19.3733 -62.8572,35.6877 -171.42862,23.4519 C 701.54499,997.85209 732.97356,981.53776 624.40213,991.73423 515.8307,1001.9307 527.25927,1014.1665 435.8307,1000.9111 344.40213,987.65565 341.54499,893.84811 127.25927,964.20376 -87.026443,1034.5594 -101.31216,1098.7972 121.545,1126.3277 c 222.85713,27.5304 319.99999,12.2357 419.99999,13.2554 100,1.0196 194.28571,1.0196 282.85714,8.1572 88.5714,7.1375 179.99997,25.4911 154.2857,35.6876 -25.7143,10.1965 -197.14284,-8.1572 -228.57142,-17.334 -31.42857,-9.1768 -57.14285,-21.4126 -137.14285,-21.4126 -80,0 -60,6.1179 -231.42857,11.2161 -171.42858,5.0983 -494.28572,13.2555 -545.71429,-33.6483 -51.42857,-46.9038 405.71429,-60.1592 405.71429,-60.1592 z"
       id="path2985-1"
       inkscape:connector-curvature="0" />
    <path
       style="color:#000000;fill:#d40000;fill-opacity:1;fill-rule:nonzero;stroke:none;stroke-width:0.5;marker:none;visibility:visible;display:inline;overflow:visible;enable-background:accumulate"
       d="m -332.74072,868.34879 c 111.42856,-37.727 -37.14286,-50.9824 251.428558,-66.2771 288.571432,-15.2947 228.571432,-8.1572 442.857172,-11.2161 214.2857,-3.0589 262.8571,0 248.5714,6.1179 -14.2857,6.1179 -140,20.3929 -208.5714,11.2161 -68.5715,-9.1768 -145.71432,-12.2358 -205.71432,-3.0589 -60,9.1768 -165.714282,31.609 -220.000002,26.5108 -54.28571,-5.0982 -174.285708,-22.4322 -197.142848,-8.1572 -22.85715,14.2751 -159.99999,54.0413 -94.28572,61.1788 65.71429,7.1376 85.71429,-45.8841 134.28572,-50.9823 48.57143,-5.0983 111.428568,4.0786 142.857138,4.0786 31.4285704,0 148.571432,8.1571 200.000002,-1.0197 51.42857,-9.1768 174.28573,-21.4126 222.85713,-19.3733 48.5714,2.0393 51.4286,20.393 171.4286,22.4323 120.00002,2.0393 154.28572,2.0393 151.42862,12.2357 -2.8572,10.1965 -68.57142,49.9627 -151.42862,29.5698 -82.8572,-20.3929 -134.2857,-46.9038 -180,-41.8055 -45.7143,5.0982 -77.1429,16.3143 -102.8572,16.3143 -25.71424,0 -74.28567,-10.1965 -179.999962,0 -105.71428,10.1965 -91.4285696,19.3733 -165.71428,17.334 -74.285718,-2.0393 -131.428578,-11.2161 -177.142858,10.1965 -45.71428,21.4126 -182.85713,54.0413 -137.14285,55.0609 45.71429,1.0197 177.14285,-32.6287 191.42856,-40.7858 14.28572,-8.1572 51.42857,-28.5502 105.714288,-17.334 54.28571,11.2161 122.85714,16.3143 171.42857,5.0982 48.571432,-11.2161 60.000002,-19.3733 88.571432,-19.3733 28.57143,0 45.71428,9.1768 151.4286,15.2947 105.7143,6.1179 165.7143,-1.0196 220,15.2947 54.2857,16.3144 142.85712,9.1768 188.57142,1.0197 45.7143,-8.1572 182.8572,-3.059 88.5715,17.334 -94.2858,20.3929 -405.71442,1.0196 -440.00012,-12.2358 -34.2857,-13.2554 -28.5714,-16.3144 -131.42854,-12.2358 -102.85715,4.0786 -125.71429,19.3733 -194.285722,16.3144 -68.57143,-3.059 -97.14286,-10.1965 -151.42857,-9.1768 -54.285708,1.0196 -102.857138,10.1964 -137.142858,20.3929 -34.28571,10.1965 -174.2857,37.7269 -157.14284,40.7859 17.14285,3.0589 185.71427,-37.727 185.71427,-37.727 0,0 -45.71428,14.2751 62.85714,7.1376 108.571428,-7.1376 79.999998,-17.334 154.285718,-11.2161 74.28571,6.1178 62.85714,15.2947 111.428572,6.1178 48.57143,-9.1768 37.14286,-16.3143 94.28571,-15.2947 57.14282,1.0197 -8.57142,2.0393 134.28572,11.2161 142.8571,9.1769 311.4286,-5.0982 400.00002,12.2358 88.5715,17.334 91.4286,47.9234 -71.4285,40.7859 -162.85722,-7.1375 -157.14292,-9.1768 -271.42862,-28.5501 -114.2858,-19.3733 -62.8572,-35.6877 -171.42862,-23.4519 -108.57142,12.2358 -77.14285,28.5501 -185.714282,18.3536 -108.57143,-10.1964 -97.14286,-22.4322 -188.571428,-9.1768 -91.42857,13.2554 -94.28571,107.06301 -308.57142,36.7073 -214.28572,-70.3556 -228.57144,-134.5934 -5.71428,-162.1239 222.85713,-27.5305 319.99999,-12.2357 419.999988,-13.2554 100,-1.0196 194.285712,-1.0196 282.857142,-8.1572 88.5714,-7.1375 180,-25.4912 154.2857,-35.6876 -25.7143,-10.1965 -197.14284,8.1572 -228.57142,17.334 -31.42857,9.1768 -57.14285,21.4126 -137.142852,21.4126 -80,0 -60,-6.1179 -231.428568,-11.2161 -171.42857,-5.0983 -494.28572,-13.2555 -545.71429,33.6483 -51.42857,46.9038 405.7143,60.1592 405.7143,60.1592 z"
       id="path2985-7"
       inkscape:connector-curvature="0" />
    <path
       style="color:#000000;fill:#d40000;fill-opacity:1;fill-rule:nonzero;stroke:none;stroke-width:0.5;marker:none;visibility:visible;display:inline;overflow:visible;enable-background:accumulate"
       d="m -706.52768,987.54826 c 63.7799,-25.78029 -21.25998,-34.83823 143.91364,-45.28969 165.17363,-10.45147 130.8306,-5.57412 253.4843,-7.66441 122.65367,-2.0903 150.45516,0 142.27825,4.18058 -8.1769,4.18059 -80.13374,13.93529 -119.3829,7.66441 -39.24922,-6.27088 -83.40452,-8.36117 -117.74755,-2.09029 -34.34303,6.27088 -94.85218,21.5997 -125.92445,18.11587 -31.07226,-3.48382 -99.75833,-15.32881 -112.84139,-5.57411 -13.08306,9.7547 -91.58141,36.9285 -53.96762,41.8059 37.6138,4.87738 49.06148,-31.35444 76.86298,-34.83825 27.8015,-3.48383 63.77991,2.78705 81.76912,2.78705 17.98921,0 85.03989,5.57414 114.47677,-0.69676 29.43688,-6.27088 99.75834,-14.63206 127.55982,-13.23853 27.80149,1.39353 29.4369,13.93529 98.12296,15.32882 68.68607,1.39355 88.31065,1.39355 86.67529,8.36114 -1.63541,6.96767 -39.24916,34.14151 -86.67529,20.2062 -47.42612,-13.93526 -76.86296,-32.05116 -103.02909,-28.56734 -26.16613,3.48381 -44.15535,11.14821 -58.8738,11.14821 -14.71841,0 -42.51992,-6.9676 -103.02907,0 -60.50915,6.96766 -52.33224,13.23853 -94.85218,11.84499 -42.51994,-1.39353 -75.22759,-7.66439 -101.39371,6.96767 -26.16612,14.63208 -104.66447,36.92848 -78.49835,37.62528 26.16612,0.6968 101.3937,-22.2965 109.57061,-27.8706 8.17692,-5.5741 29.43689,-19.50941 60.50916,-11.84495 31.07226,7.66445 70.32144,11.14815 98.12294,3.4838 27.8015,-7.66439 34.34303,-13.23853 50.69686,-13.23853 16.35382,0 26.16611,6.27087 86.67528,10.45147 60.50916,4.18061 94.85219,-0.69674 125.92445,10.45141 31.07226,11.1483 81.7691,6.2709 107.935225,0.6968 26.166128,-5.5741 104.664509,-2.0903 50.696897,11.845 -53.967672,13.9353 -232.224372,0.6968 -251.848952,-8.3612 -19.62458,-9.0579 -16.35381,-11.1482 -75.22757,-8.3611 -58.87378,2.787 -71.95683,13.2385 -111.20601,11.1482 -39.24918,-2.0903 -55.60301,-6.9677 -86.67527,-6.2709 -31.07227,0.6968 -58.87377,6.9676 -78.49836,13.9353 -19.62459,6.9677 -99.75832,25.7803 -89.94602,27.8706 9.81229,2.0903 106.29984,-25.7803 106.29984,-25.7803 0,0 -26.16611,9.7547 35.97842,4.8774 62.14453,-4.8774 45.7907,-11.845 88.31065,-7.6644 42.51994,4.1805 35.97841,10.4514 63.77992,4.1805 27.8015,-6.2709 21.25997,-11.1482 53.96761,-10.4515 32.70763,0.6968 -4.90614,1.3936 76.86298,7.6645 81.7691,6.2709 178.2567,-3.4839 228.953542,8.3611 50.696897,11.845 52.332255,32.748 -40.884522,27.8706 -93.21683,-4.8773 -89.94606,-6.2708 -155.36135,-19.5094 -65.41534,-13.2385 -35.97844,-24.3868 -98.12297,-16.0256 -62.14453,8.3612 -44.15532,19.5094 -106.29985,12.5418 -62.14454,-6.9676 -55.60301,-15.3288 -107.93525,-6.2709 -52.33223,9.0579 -53.96761,73.1603 -176.62129,25.0835 -122.65369,-48.0767 -130.83061,-91.97287 -3.27077,-110.78551 127.55983,-18.81264 183.16283,-8.36117 240.40122,-9.05793 57.23838,-0.69677 111.206,-0.69677 161.90286,-5.57412 50.69684,-4.87735 103.02909,-17.41911 88.31064,-24.38676 -14.71845,-6.96764 -112.84138,5.57412 -130.83059,11.845 -17.98921,6.27088 -32.70764,14.63205 -78.49835,14.63205 -45.79071,0 -34.34303,-4.18058 -132.46598,-7.6644 -98.12295,-3.48383 -282.92116,-9.05795 -312.35805,22.99322 -29.43688,32.05118 232.22432,41.10911 232.22432,41.10911 z"
       id="path2985-4"
       inkscape:connector-curvature="0" />
    <rect
       style="color:#000000;fill:#ff5931;fill-opacity:1;fill-rule:nonzero;stroke:none;stroke-width:0.5;marker:none;visibility:visible;display:inline;overflow:visible;enable-background:accumulate"
       id="rect3846"
       width="812.85712"
       height="690"
       x="660.29254"
       y="-217.93756" />
    <path
       transform="translate(810.29253,-130.79468)"
       sodipodi:type="arc"
       style="color:#000000;fill:#e9ddaf;fill-opacity:1;fill-rule:nonzero;stroke:none;stroke-width:0.5;marker:none;visibility:visible;display:inline;overflow:visible;enable-background:accumulate"
       id="path3873"
       sodipodi:cx="41.42857"
       sodipodi:cy="78.571426"
       sodipodi:rx="11.428572"
       sodipodi:ry="5.7142859"
       d="m 52.857141,78.571426 a 11.428572,5.7142859 0 1 1 -22.857143,0 11.428572,5.7142859 0 1 1 22.857143,0 z" />
    <path
       transform="translate(810.29253,-130.79468)"
       sodipodi:type="arc"
       style="color:#000000;fill:#a95c5c;fill-opacity:1;fill-rule:nonzero;stroke:none;stroke-width:0.5;marker:none;visibility:visible;display:inline;overflow:visible;enable-background:accumulate"
       id="path3875"
       sodipodi:cx="85.714287"
       sodipodi:cy="124.28571"
       sodipodi:rx="20"
       sodipodi:ry="22.857143"
       d="m 105.71429,124.28571 a 20,22.857143 0 1 1 -40.000003,0 20,22.857143 0 1 1 40.000003,0 z" />
    <path
       transform="translate(810.29253,-130.79468)"
       sodipodi:type="arc"
       style="color:#000000;fill:#e9ddaf;fill-opacity:1;fill-rule:nonzero;stroke:none;stroke-width:0.5;marker:none;visibility:visible;display:inline;overflow:visible;enable-background:accumulate"
       id="path3877"
       sodipodi:cx="195.71428"
       sodipodi:cy="163.57143"
       sodipodi:rx="12.857142"
       sodipodi:ry="10.714286"
       d="m 208.57142,163.57143 a 12.857142,10.714286 0 1 1 -25.71428,0 12.857142,10.714286 0 1 1 25.71428,0 z" />
    <path
       transform="translate(810.29253,-130.79468)"
       sodipodi:type="arc"
       style="color:#000000;fill:#e9ddaf;fill-opacity:1;fill-rule:nonzero;stroke:none;stroke-width:0.5;marker:none;visibility:visible;display:inline;overflow:visible;enable-background:accumulate"
       id="path3879"
       sodipodi:cx="156.42857"
       sodipodi:cy="207.14285"
       sodipodi:rx="17.857143"
       sodipodi:ry="10"
       d="m 174.28572,207.14285 a 17.857143,10 0 1 1 -35.71429,0 17.857143,10 0 1 1 35.71429,0 z" />
    <path
       transform="translate(810.29253,-130.79468)"
       sodipodi:type="arc"
       style="color:#000000;fill:#e9ddaf;fill-opacity:1;fill-rule:nonzero;stroke:none;stroke-width:0.5;marker:none;visibility:visible;display:inline;overflow:visible;enable-background:accumulate"
       id="path3881"
       sodipodi:cx="90.714287"
       sodipodi:cy="298.57144"
       sodipodi:rx="22.142857"
       sodipodi:ry="14.285714"
       d="m 112.85714,298.57144 a 22.142857,14.285714 0 1 1 -44.28571,0 22.142857,14.285714 0 1 1 44.28571,0 z" />
    <path
       sodipodi:type="arc"
       style="color:#000000;fill:#e9ddaf;fill-opacity:1;fill-rule:nonzero;stroke:none;stroke-width:0.5;marker:none;visibility:visible;display:inline;overflow:visible;enable-background:accumulate"
       id="path3883"
       sodipodi:cx="248.57143"
       sodipodi:cy="338.57144"
       sodipodi:rx="17.142857"
       sodipodi:ry="17.142857"
       d="m 265.71428,338.57144 a 17.142857,17.142857 0 1 1 -34.28571,0 17.142857,17.142857 0 1 1 34.28571,0 z"
       transform="matrix(1,0,0,0.62499999,810.29253,-10.258977)" />
    <path
       sodipodi:type="arc"
       style="color:#000000;fill:#e9ddaf;fill-opacity:1;fill-rule:nonzero;stroke:none;stroke-width:0.5;marker:none;visibility:visible;display:inline;overflow:visible;enable-background:accumulate"
       id="path3885"
       sodipodi:cx="331.42856"
       sodipodi:cy="262.14285"
       sodipodi:rx="20"
       sodipodi:ry="10.714286"
       d="m 351.42856,262.14285 a 20,10.714286 0 1 1 -40,0 20,10.714286 0 1 1 40,0 z"
       transform="matrix(0.15422516,-0.72203028,0.82571326,0.17637177,758.51511,367.57742)" />
    <path
       sodipodi:type="arc"
       style="color:#000000;fill:#e9ddaf;fill-opacity:1;fill-rule:nonzero;stroke:none;stroke-width:0.5;marker:none;visibility:visible;display:inline;overflow:visible;enable-background:accumulate"
       id="path3887"
       sodipodi:cx="385.71429"
       sodipodi:cy="325.71429"
       sodipodi:rx="31.428572"
       sodipodi:ry="24.285715"
       d="m 417.14287,325.71429 a 31.428572,24.285715 0 1 1 -62.85715,0 31.428572,24.285715 0 1 1 62.85715,0 z"
       transform="matrix(0.06309211,-0.29537603,0.24285686,0.05187406,966.49182,253.94712)" />
    <path
       transform="translate(810.29253,-130.79468)"
       sodipodi:type="arc"
       style="color:#000000;fill:#e9ddaf;fill-opacity:1;fill-rule:nonzero;stroke:none;stroke-width:0.5;marker:none;visibility:visible;display:inline;overflow:visible;enable-background:accumulate"
       id="path3889"
       sodipodi:cx="106.42857"
       sodipodi:cy="399.28571"
       sodipodi:rx="27.857143"
       sodipodi:ry="7.8571429"
       d="m 134.28572,399.28571 a 27.857143,7.8571429 0 1 1 -55.71429,0 27.857143,7.8571429 0 1 1 55.71429,0 z" />
    <path
       transform="translate(810.29253,-130.79468)"
       sodipodi:type="arc"
       style="color:#000000;fill:#e9ddaf;fill-opacity:1;fill-rule:nonzero;stroke:none;stroke-width:0.5;marker:none;visibility:visible;display:inline;overflow:visible;enable-background:accumulate"
       id="path3891"
       sodipodi:cx="200.71428"
       sodipodi:cy="450"
       sodipodi:rx="13.571428"
       sodipodi:ry="5.7142859"
       d="m 214.28571,450 a 13.571428,5.7142859 0 1 1 -27.14286,0 13.571428,5.7142859 0 1 1 27.14286,0 z" />
    <path
       transform="translate(810.29253,-130.79468)"
       sodipodi:type="arc"
       style="color:#000000;fill:#e9ddaf;fill-opacity:1;fill-rule:nonzero;stroke:none;stroke-width:0.5;marker:none;visibility:visible;display:inline;overflow:visible;enable-background:accumulate"
       id="path3893"
       sodipodi:cx="279.28571"
       sodipodi:cy="419.28571"
       sodipodi:rx="15"
       sodipodi:ry="10.714286"
       d="m 294.28571,419.28571 a 15,10.714286 0 1 1 -30,0 15,10.714286 0 1 1 30,0 z" />
    <path
       transform="matrix(0.15422516,-0.72203028,0.82571326,0.17637177,755.68919,196.02642)"
       sodipodi:type="arc"
       style="color:#000000;fill:#e9ddaf;fill-opacity:1;fill-rule:nonzero;stroke:none;stroke-width:0.5;marker:none;visibility:visible;display:inline;overflow:visible;enable-background:accumulate"
       id="path3877-3"
       sodipodi:cx="195.71428"
       sodipodi:cy="163.57143"
       sodipodi:rx="12.857142"
       sodipodi:ry="10.714286"
       d="m 208.57142,163.57143 a 12.857142,10.714286 0 1 1 -25.71428,0 12.857142,10.714286 0 1 1 25.71428,0 z" />
    <path
       transform="matrix(0.15422516,-0.72203028,0.82571326,0.17637177,755.68919,196.02642)"
       sodipodi:type="arc"
       style="color:#000000;fill:#e9ddaf;fill-opacity:1;fill-rule:nonzero;stroke:none;stroke-width:0.5;marker:none;visibility:visible;display:inline;overflow:visible;enable-background:accumulate"
       id="path3879-7"
       sodipodi:cx="156.42857"
       sodipodi:cy="207.14285"
       sodipodi:rx="17.857143"
       sodipodi:ry="10"
       d="m 174.28572,207.14285 a 17.857143,10 0 1 1 -35.71429,0 17.857143,10 0 1 1 35.71429,0 z" />
    <path
       transform="translate(819.57824,-377.93756)"
       sodipodi:type="arc"
       style="color:#000000;fill:#ffeeaa;fill-opacity:1;fill-rule:nonzero;stroke:none;stroke-width:0.5;marker:none;visibility:visible;display:inline;overflow:visible;enable-background:accumulate"
       id="path3883-2"
       sodipodi:cx="248.57143"
       sodipodi:cy="338.57144"
       sodipodi:rx="17.142857"
       sodipodi:ry="17.142857"
       d="m 265.71428,338.57144 a 17.142857,17.142857 0 1 1 -34.28571,0 17.142857,17.142857 0 1 1 34.28571,0 z" />
    <path
       transform="translate(648.14967,-365.08042)"
       sodipodi:type="arc"
       style="color:#000000;fill:#e9ddaf;fill-opacity:1;fill-rule:nonzero;stroke:none;stroke-width:0.5;marker:none;visibility:visible;display:inline;overflow:visible;enable-background:accumulate"
       id="path3885-6"
       sodipodi:cx="331.42856"
       sodipodi:cy="262.14285"
       sodipodi:rx="20"
       sodipodi:ry="10.714286"
       d="m 351.42856,262.14285 a 20,10.714286 0 1 1 -40,0 20,10.714286 0 1 1 40,0 z" />
    <path
       sodipodi:type="arc"
       style="color:#000000;fill:#e9ddaf;fill-opacity:1;fill-rule:nonzero;stroke:none;stroke-width:0.5;marker:none;visibility:visible;display:inline;overflow:visible;enable-background:accumulate"
       id="path3887-0"
       sodipodi:cx="385.71429"
       sodipodi:cy="325.71429"
       sodipodi:rx="31.428572"
       sodipodi:ry="24.285715"
       d="m 417.14287,325.71429 a 31.428572,24.285715 0 1 1 -62.85715,0 31.428572,24.285715 0 1 1 62.85715,0 z"
       transform="matrix(0.06309211,-0.29537603,0.24285686,0.05187406,926.97367,196.43282)" />
    <path
       transform="matrix(0.15422516,-0.72203028,0.82571326,0.17637177,755.68919,196.02642)"
       sodipodi:type="arc"
       style="color:#000000;fill:#e9ddaf;fill-opacity:1;fill-rule:nonzero;stroke:none;stroke-width:0.5;marker:none;visibility:visible;display:inline;overflow:visible;enable-background:accumulate"
       id="path3891-1"
       sodipodi:cx="200.71428"
       sodipodi:cy="450"
       sodipodi:rx="13.571428"
       sodipodi:ry="5.7142859"
       d="m 214.28571,450 a 13.571428,5.7142859 0 1 1 -27.14286,0 13.571428,5.7142859 0 1 1 27.14286,0 z" />
    <path
       transform="matrix(0.15422516,-0.72203028,0.82571326,0.17637177,575.25651,307.40212)"
       sodipodi:type="arc"
       style="color:#000000;fill:#e9ddaf;fill-opacity:1;fill-rule:nonzero;stroke:none;stroke-width:0.5;marker:none;visibility:visible;display:inline;overflow:visible;enable-background:accumulate"
       id="path3893-6"
       sodipodi:cx="279.28571"
       sodipodi:cy="419.28571"
       sodipodi:rx="15"
       sodipodi:ry="10.714286"
       d="m 294.28571,419.28571 a 15,10.714286 0 1 1 -30,0 15,10.714286 0 1 1 30,0 z" />
    <path
       transform="translate(810.29253,-130.79468)"
       sodipodi:type="arc"
       style="color:#000000;fill:#e9ddaf;fill-opacity:1;fill-rule:nonzero;stroke:none;stroke-width:0.5;marker:none;visibility:visible;display:inline;overflow:visible;enable-background:accumulate"
       id="path3931"
       sodipodi:cx="353.57144"
       sodipodi:cy="37.142857"
       sodipodi:rx="22.142857"
       sodipodi:ry="12.857142"
       d="m 375.7143,37.142857 a 22.142857,12.857142 0 1 1 -44.28571,0 22.142857,12.857142 0 1 1 44.28571,0 z" />
    <path
       transform="translate(810.29253,-130.79468)"
       sodipodi:type="arc"
       style="color:#000000;fill:#e9ddaf;fill-opacity:1;fill-rule:nonzero;stroke:none;stroke-width:0.5;marker:none;visibility:visible;display:inline;overflow:visible;enable-background:accumulate"
       id="path3933"
       sodipodi:cx="391.42856"
       sodipodi:cy="103.57143"
       sodipodi:rx="8.5714283"
       sodipodi:ry="7.8571429"
       d="m 399.99999,103.57143 a 8.5714283,7.8571429 0 1 1 -17.14286,0 8.5714283,7.8571429 0 1 1 17.14286,0 z" />
    <path
       transform="translate(810.29253,-130.79468)"
       sodipodi:type="arc"
       style="color:#000000;fill:#e9ddaf;fill-opacity:1;fill-rule:nonzero;stroke:none;stroke-width:0.5;marker:none;visibility:visible;display:inline;overflow:visible;enable-background:accumulate"
       id="path3935"
       sodipodi:cx="315.71429"
       sodipodi:cy="135"
       sodipodi:rx="14.285714"
       sodipodi:ry="6.4285712"
       d="m 330.00001,135 a 14.285714,6.4285712 0 1 1 -28.57143,0 14.285714,6.4285712 0 1 1 28.57143,0 z" />
    <path
       transform="translate(810.29253,-130.79468)"
       sodipodi:type="arc"
       style="color:#000000;fill:#e9ddaf;fill-opacity:1;fill-rule:nonzero;stroke:none;stroke-width:0.5;marker:none;visibility:visible;display:inline;overflow:visible;enable-background:accumulate"
       id="path3937"
       sodipodi:cx="298.57144"
       sodipodi:cy="176.42857"
       sodipodi:rx="8.5714283"
       sodipodi:ry="12.142858"
       d="m 307.14287,176.42857 a 8.5714283,12.142858 0 1 1 -17.14286,0 8.5714283,12.142858 0 1 1 17.14286,0 z" />
    <path
       transform="translate(810.29253,-130.79468)"
       sodipodi:type="arc"
       style="color:#000000;fill:#e9ddaf;fill-opacity:1;fill-rule:nonzero;stroke:none;stroke-width:0.5;marker:none;visibility:visible;display:inline;overflow:visible;enable-background:accumulate"
       id="path3939"
       sodipodi:cx="258.57144"
       sodipodi:cy="156.42857"
       sodipodi:rx="8.5714283"
       sodipodi:ry="6.4285712"
       d="m 267.14287,156.42857 a 8.5714283,6.4285712 0 1 1 -17.14286,0 8.5714283,6.4285712 0 1 1 17.14286,0 z" />
    <path
       transform="translate(810.29253,-130.79468)"
       sodipodi:type="arc"
       style="color:#000000;fill:#e9ddaf;fill-opacity:1;fill-rule:nonzero;stroke:none;stroke-width:0.5;marker:none;visibility:visible;display:inline;overflow:visible;enable-background:accumulate"
       id="path3941"
       sodipodi:cx="385"
       sodipodi:cy="392.85715"
       sodipodi:rx="12.142858"
       sodipodi:ry="10"
       d="m 397.14286,392.85715 a 12.142858,10 0 1 1 -24.28572,0 12.142858,10 0 1 1 24.28572,0 z" />
    <path
       transform="translate(810.29253,-130.79468)"
       sodipodi:type="arc"
       style="color:#000000;fill:#e9ddaf;fill-opacity:1;fill-rule:nonzero;stroke:none;stroke-width:0.5;marker:none;visibility:visible;display:inline;overflow:visible;enable-background:accumulate"
       id="path3943"
       sodipodi:cx="452.14285"
       sodipodi:cy="269.28571"
       sodipodi:rx="13.571428"
       sodipodi:ry="7.8571429"
       d="m 465.71428,269.28571 a 13.571428,7.8571429 0 1 1 -27.14286,0 13.571428,7.8571429 0 1 1 27.14286,0 z" />
    <path
       transform="translate(810.29253,-130.79468)"
       sodipodi:type="arc"
       style="color:#000000;fill:#e9ddaf;fill-opacity:1;fill-rule:nonzero;stroke:none;stroke-width:0.5;marker:none;visibility:visible;display:inline;overflow:visible;enable-background:accumulate"
       id="path3945"
       sodipodi:cx="440"
       sodipodi:cy="190.71428"
       sodipodi:rx="14.285714"
       sodipodi:ry="10.714286"
       d="m 454.28571,190.71428 a 14.285714,10.714286 0 1 1 -28.57142,0 14.285714,10.714286 0 1 1 28.57142,0 z" />
    <path
       transform="translate(810.29253,-130.79468)"
       sodipodi:type="arc"
       style="color:#000000;fill:#e9ddaf;fill-opacity:1;fill-rule:nonzero;stroke:none;stroke-width:0.5;marker:none;visibility:visible;display:inline;overflow:visible;enable-background:accumulate"
       id="path3947"
       sodipodi:cx="382.85715"
       sodipodi:cy="185"
       sodipodi:rx="18.571428"
       sodipodi:ry="9.2857141"
       d="m 401.42858,185 a 18.571428,9.2857141 0 1 1 -37.14286,0 18.571428,9.2857141 0 1 1 37.14286,0 z" />
    <path
       transform="translate(810.29253,-130.79468)"
       sodipodi:type="arc"
       style="color:#000000;fill:#e9ddaf;fill-opacity:1;fill-rule:nonzero;stroke:none;stroke-width:0.5;marker:none;visibility:visible;display:inline;overflow:visible;enable-background:accumulate"
       id="path3949"
       sodipodi:cx="401.42856"
       sodipodi:cy="284.28571"
       sodipodi:rx="15.714286"
       sodipodi:ry="10"
       d="m 417.14284,284.28571 a 15.714286,10 0 1 1 -31.42857,0 15.714286,10 0 1 1 31.42857,0 z" />
    <path
       transform="translate(810.29253,-130.79468)"
       sodipodi:type="arc"
       style="color:#000000;fill:#e9ddaf;fill-opacity:1;fill-rule:nonzero;stroke:none;stroke-width:0.5;marker:none;visibility:visible;display:inline;overflow:visible;enable-background:accumulate"
       id="path3951"
       sodipodi:cx="431.42856"
       sodipodi:cy="340.71429"
       sodipodi:rx="12.857142"
       sodipodi:ry="7.8571429"
       d="m 444.2857,340.71429 a 12.857142,7.8571429 0 1 1 -25.71428,0 12.857142,7.8571429 0 1 1 25.71428,0 z" />
    <path
       transform="translate(810.29253,-130.79468)"
       sodipodi:type="arc"
       style="color:#000000;fill:#e9ddaf;fill-opacity:1;fill-rule:nonzero;stroke:none;stroke-width:0.5;marker:none;visibility:visible;display:inline;overflow:visible;enable-background:accumulate"
       id="path3953"
       sodipodi:cx="443.57144"
       sodipodi:cy="439.28571"
       sodipodi:rx="12.142858"
       sodipodi:ry="9.2857141"
       d="m 455.7143,439.28571 a 12.142858,9.2857141 0 1 1 -24.28572,0 12.142858,9.2857141 0 1 1 24.28572,0 z" />
    <path
       transform="translate(810.29253,-130.79468)"
       sodipodi:type="arc"
       style="color:#000000;fill:#e9ddaf;fill-opacity:1;fill-rule:nonzero;stroke:none;stroke-width:0.5;marker:none;visibility:visible;display:inline;overflow:visible;enable-background:accumulate"
       id="path3955"
       sodipodi:cx="396.42856"
       sodipodi:cy="467.85715"
       sodipodi:rx="13.571428"
       sodipodi:ry="6.4285712"
       d="m 409.99999,467.85715 a 13.571428,6.4285712 0 1 1 -27.14286,0 13.571428,6.4285712 0 1 1 27.14286,0 z" />
    <path
       transform="translate(661.7211,172.28122)"
       sodipodi:type="arc"
       style="color:#000000;fill:#800000;fill-opacity:1;fill-rule:nonzero;stroke:none;stroke-width:0.5;marker:none;visibility:visible;display:inline;overflow:visible;enable-background:accumulate"
       id="path3877-5"
       sodipodi:cx="195.71428"
       sodipodi:cy="163.57143"
       sodipodi:rx="12.857142"
       sodipodi:ry="10.714286"
       d="m 208.57142,163.57143 a 12.857142,10.714286 0 1 1 -25.71428,0 12.857142,10.714286 0 1 1 25.71428,0 z" />
    <path
       transform="translate(821.7211,35.138423)"
       sodipodi:type="arc"
       style="color:#000000;fill:#800000;fill-opacity:1;fill-rule:nonzero;stroke:none;stroke-width:0.5;marker:none;visibility:visible;display:inline;overflow:visible;enable-background:accumulate"
       id="path3879-75"
       sodipodi:cx="156.42857"
       sodipodi:cy="207.14285"
       sodipodi:rx="17.857143"
       sodipodi:ry="10"
       d="m 174.28572,207.14285 a 17.857143,10 0 1 1 -35.71429,0 17.857143,10 0 1 1 35.71429,0 z" />
    <path
       transform="translate(851.00681,-253.43303)"
       sodipodi:type="arc"
       style="color:#000000;fill:#800000;fill-opacity:1;fill-rule:nonzero;stroke:none;stroke-width:0.5;marker:none;visibility:visible;display:inline;overflow:visible;enable-background:accumulate"
       id="path3883-2-4"
       sodipodi:cx="248.57143"
       sodipodi:cy="338.57144"
       sodipodi:rx="17.142857"
       sodipodi:ry="17.142857"
       d="m 265.71428,338.57144 a 17.142857,17.142857 0 1 1 -34.28571,0 17.142857,17.142857 0 1 1 34.28571,0 z" />
    <path
       transform="translate(598.14966,-56.290177)"
       sodipodi:type="arc"
       style="color:#000000;fill:#800000;fill-opacity:1;fill-rule:nonzero;stroke:none;stroke-width:0.5;marker:none;visibility:visible;display:inline;overflow:visible;enable-background:accumulate"
       id="path3885-6-1"
       sodipodi:cx="331.42856"
       sodipodi:cy="262.14285"
       sodipodi:rx="20"
       sodipodi:ry="10.714286"
       d="m 351.42856,262.14285 a 20,10.714286 0 1 1 -40,0 20,10.714286 0 1 1 40,0 z" />
    <path
       sodipodi:type="arc"
       style="color:#000000;fill:#800000;fill-opacity:1;fill-rule:nonzero;stroke:none;stroke-width:0.5;marker:none;visibility:visible;display:inline;overflow:visible;enable-background:accumulate"
       id="path3887-0-2"
       sodipodi:cx="385.71429"
       sodipodi:cy="325.71429"
       sodipodi:rx="31.428572"
       sodipodi:ry="24.285715"
       d="m 417.14287,325.71429 a 31.428572,24.285715 0 1 1 -62.85715,0 31.428572,24.285715 0 1 1 62.85715,0 z"
       transform="matrix(0.06309211,-0.29537603,0.24285686,0.05187406,736.97367,315.22302)" />
    <path
       transform="translate(518.86396,9.4241226)"
       sodipodi:type="arc"
       style="color:#000000;fill:#800000;fill-opacity:1;fill-rule:nonzero;stroke:none;stroke-width:0.5;marker:none;visibility:visible;display:inline;overflow:visible;enable-background:accumulate"
       id="path3931-0"
       sodipodi:cx="353.57144"
       sodipodi:cy="37.142857"
       sodipodi:rx="22.142857"
       sodipodi:ry="12.857142"
       d="m 375.7143,37.142857 a 22.142857,12.857142 0 1 1 -44.28571,0 22.142857,12.857142 0 1 1 44.28571,0 z" />
    <path
       transform="translate(817.43539,69.424123)"
       sodipodi:type="arc"
       style="color:#000000;fill:#800000;fill-opacity:1;fill-rule:nonzero;stroke:none;stroke-width:0.5;marker:none;visibility:visible;display:inline;overflow:visible;enable-background:accumulate"
       id="path3935-0"
       sodipodi:cx="315.71429"
       sodipodi:cy="135"
       sodipodi:rx="14.285714"
       sodipodi:ry="6.4285712"
       d="m 330.00001,135 a 14.285714,6.4285712 0 1 1 -28.57143,0 14.285714,6.4285712 0 1 1 28.57143,0 z" />
    <path
       transform="translate(727.43539,80.852723)"
       sodipodi:type="arc"
       style="color:#000000;fill:#800000;fill-opacity:1;fill-rule:nonzero;stroke:none;stroke-width:0.5;marker:none;visibility:visible;display:inline;overflow:visible;enable-background:accumulate"
       id="path3937-1"
       sodipodi:cx="298.57144"
       sodipodi:cy="176.42857"
       sodipodi:rx="8.5714283"
       sodipodi:ry="12.142858"
       d="m 307.14287,176.42857 a 8.5714283,12.142858 0 1 1 -17.14286,0 8.5714283,12.142858 0 1 1 17.14286,0 z" />
    <path
       transform="translate(796.00682,-247.71874)"
       sodipodi:type="arc"
       style="color:#000000;fill:#800000;fill-opacity:1;fill-rule:nonzero;stroke:none;stroke-width:0.5;marker:none;visibility:visible;display:inline;overflow:visible;enable-background:accumulate"
       id="path3939-4"
       sodipodi:cx="258.57144"
       sodipodi:cy="156.42857"
       sodipodi:rx="8.5714283"
       sodipodi:ry="6.4285712"
       d="m 267.14287,156.42857 a 8.5714283,6.4285712 0 1 1 -17.14286,0 8.5714283,6.4285712 0 1 1 17.14286,0 z" />
    <rect
       style="color:#000000;fill:#ee4141;fill-opacity:0.39423078;fill-rule:nonzero;stroke:none;stroke-width:0.50000000000000000;marker:none;visibility:visible;display:inline;overflow:visible;enable-background:accumulate"
       id="rect3846-0"
       width="812.85712"
       height="690"
       x="-151.87012"
       y="495.23013" />
  </g>
</svg>
